<svg width="34" height="22" viewBox="0 0 34 22" fill="none" xmlns="http://www.w3.org/2000/svg">
<path d="M5.69119 2.9503L5.58594 0.874262H11.4983L11.3811 2.9503H9.75624V9.55005H7.32202V2.9503H5.69119ZM14.5851 7.81979C14.861 7.81979 15.1535 7.7984 15.4603 7.75562C15.7674 7.71285 16.072 7.65536 16.3766 7.58273L16.6301 9.16549C16.2843 9.34061 15.8826 9.47741 15.4255 9.57767C14.9684 9.67793 14.4618 9.72917 13.9059 9.72917C11.8592 9.72917 10.8359 8.5929 10.8359 6.32258C10.8359 5.72459 10.9016 5.20993 11.0335 4.77413C11.1654 4.34056 11.3609 3.98141 11.6182 3.6998C11.8755 3.41818 12.1926 3.21053 12.5715 3.07641C12.9504 2.94183 13.3869 2.87366 13.8814 2.87366C14.3755 2.87366 14.7974 2.94807 15.1479 3.09779C15.4977 3.2493 15.7864 3.45472 16.0128 3.7194C16.2392 3.9823 16.4063 4.29378 16.5111 4.6507C16.6159 5.00941 16.6675 5.39797 16.6675 5.81683C16.6675 5.94472 16.6593 6.0775 16.6426 6.21207C16.6263 6.34664 16.6078 6.47498 16.585 6.5944C16.5622 6.71382 16.5373 6.82522 16.5128 6.92325C16.4879 7.02128 16.4651 7.09837 16.445 7.15407H13.2692C13.286 7.26725 13.3229 7.36751 13.3783 7.44861C13.4342 7.53238 13.5124 7.60011 13.6133 7.65581C13.7139 7.70928 13.8441 7.75161 14.0022 7.77969C14.1607 7.80776 14.3544 7.82024 14.5851 7.82024V7.81979ZM14.4554 5.55125C14.4511 5.29682 14.4021 5.11368 14.3072 5.00228C14.2127 4.8891 14.0644 4.8334 13.8625 4.8334C13.6649 4.8334 13.5128 4.89132 13.4033 5.00852C13.2941 5.12393 13.2344 5.30528 13.2263 5.55081H14.4554V5.55125ZM19.8896 9.66501C19.552 9.73764 19.2285 9.74611 18.9178 9.69085C18.6068 9.63515 18.331 9.52197 18.0917 9.35131C17.8528 9.1802 17.6616 8.95829 17.5173 8.68514C17.3729 8.41154 17.3012 8.09339 17.3012 7.73022V0.72677L19.6366 0.463867V7.28151C19.6366 7.43524 19.6615 7.57427 19.7088 7.69814C19.756 7.82202 19.8157 7.93074 19.8879 8.02476C19.9601 8.11879 20.0383 8.1981 20.1246 8.26227C20.211 8.32599 20.2956 8.37322 20.3781 8.40308L19.8901 9.66545L19.8896 9.66501ZM24.4157 7.81979C24.6915 7.81979 24.984 7.7984 25.2908 7.75562C25.598 7.71285 25.9026 7.65536 26.2072 7.58273L26.4606 9.16549C26.1148 9.34061 25.7131 9.47741 25.256 9.57767C24.7989 9.67793 24.2924 9.72917 23.736 9.72917C21.6893 9.72917 20.666 8.5929 20.666 6.32258C20.666 5.72459 20.7317 5.20993 20.8636 4.77413C20.9955 4.34056 21.1909 3.98141 21.4487 3.6998C21.7061 3.41818 22.0231 3.21053 22.402 3.07641C22.7814 2.94183 23.2175 2.87366 23.7119 2.87366C24.206 2.87366 24.6279 2.94807 24.9785 3.09779C25.3282 3.2493 25.6169 3.45472 25.8433 3.7194C26.0697 3.9823 26.2368 4.29378 26.3416 4.6507C26.4465 5.00941 26.498 5.39797 26.498 5.81683C26.498 5.94472 26.4899 6.0775 26.4731 6.21207C26.4568 6.34664 26.4383 6.47498 26.4155 6.5944C26.3928 6.71382 26.3678 6.82522 26.3434 6.92325C26.3184 7.02128 26.2957 7.09837 26.2755 7.15407H23.1002C23.1169 7.26725 23.1539 7.36751 23.2093 7.44861C23.2651 7.53238 23.3433 7.60011 23.4443 7.65581C23.5448 7.70928 23.675 7.75161 23.8335 7.77969C23.9921 7.80776 24.1858 7.82024 24.4165 7.82024L24.4157 7.81979ZM24.2859 5.55125C24.282 5.29682 24.2326 5.11368 24.1377 5.00228C24.0432 4.8891 23.895 4.8334 23.693 4.8334C23.4954 4.8334 23.3429 4.89132 23.2338 5.00852C23.1247 5.12393 23.0649 5.30528 23.0568 5.55081H24.2859V5.55125Z" fill="white"/>
<path d="M25.9863 14.6852C25.9863 13.3604 26.2776 12.373 26.8597 11.7206C27.4419 11.0709 28.2878 10.7461 29.3971 10.7461C30.5154 10.7461 31.3613 11.0758 31.9344 11.7335C32.5071 12.3908 32.7936 13.3805 32.7936 14.7003C32.7936 16.0523 32.5049 17.0571 31.9249 17.7197C31.3449 18.3792 30.4969 18.7094 29.3833 18.7094C28.2693 18.7094 27.426 18.3792 26.8507 17.7197C26.2755 17.0571 25.9868 16.0474 25.9868 14.6856L25.9863 14.6852ZM30.1317 14.7146C30.1317 14.3621 30.118 14.0698 30.09 13.8368C30.0625 13.6033 30.0187 13.4175 29.9581 13.2807C29.9006 13.1443 29.8241 13.0476 29.7317 12.9906C29.6389 12.9331 29.5307 12.9037 29.4082 12.9037C29.2836 12.9037 29.1724 12.9309 29.08 12.9857C28.9855 13.04 28.9069 13.1367 28.8441 13.2758C28.7819 13.4148 28.7359 13.6006 28.7058 13.8319C28.6757 14.0627 28.662 14.3577 28.662 14.7146C28.662 15.0693 28.6757 15.3647 28.7058 15.6004C28.7359 15.8362 28.7823 16.0246 28.842 16.1659C28.9021 16.3072 28.976 16.4065 29.0688 16.4636C29.1612 16.521 29.272 16.5504 29.4014 16.5504C29.5238 16.5504 29.6321 16.521 29.7249 16.4636C29.8177 16.4065 29.8937 16.3076 29.9513 16.1659C30.0114 16.0246 30.0574 15.8357 30.0875 15.6004C30.1175 15.3647 30.1313 15.0697 30.1313 14.7146H30.1317Z" fill="white"/>
<path fill-rule="evenodd" clip-rule="evenodd" d="M30.0976 1.23257C30.5337 1.71783 31.1184 2.60858 31.5545 3.09428C32.1804 2.97486 32.8064 2.85589 33.4315 2.7378C33.761 2.67586 33.9199 2.99447 33.7593 3.31886C33.4856 3.87274 33.2115 4.42706 32.9374 4.98094C33.2454 5.6079 33.642 6.29367 33.9487 6.91884C34.0849 7.1969 33.9384 7.33815 33.6613 7.33236C32.9885 7.31854 32.3226 7.2624 31.6533 7.23388C30.7571 9.7974 29.8613 11.6707 28.9334 13.1599C27.5139 15.4373 25.8822 17.1774 24.1814 18.7619C20.9244 21.796 14.2495 22.8057 12.6758 18.9798C12.534 18.6349 12.8291 18.2718 13.0465 18.7334C13.2721 19.212 13.5904 19.5729 13.9805 19.818C16.5776 21.4533 20.9223 18.4295 22.7997 16.6801C24.15 15.4222 25.45 13.9103 26.5924 12.0659C27.6033 10.4342 28.4904 8.54126 29.18 6.33422L27.2583 5.34009C26.9545 5.1828 27.0237 4.76616 27.2935 4.62491C27.8477 4.33527 28.7499 4.0541 29.305 3.76312C29.4004 3.12191 29.5615 2.02217 29.6547 1.38229C29.6929 1.12073 29.9125 1.02582 30.0985 1.23257H30.0976Z" fill="#FDCB14"/>
<path d="M0 8.44336H4.05516C4.44311 8.44336 4.81516 8.49059 5.16916 8.58684C5.52274 8.68354 5.83249 8.83459 6.10014 9.03779C6.36823 9.24098 6.58089 9.50344 6.7377 9.82605C6.89494 10.1482 6.97356 10.5319 6.97356 10.9779C6.97356 11.4935 6.87904 11.9346 6.687 12.3013C6.49539 12.6681 6.16287 12.9403 5.69115 13.119V13.2233C5.91326 13.3124 6.11905 13.4189 6.30593 13.5455C6.49324 13.672 6.65263 13.828 6.78667 14.0111C6.92071 14.1942 7.02425 14.4099 7.09857 14.6603C7.17247 14.9103 7.20942 15.2053 7.20942 15.5426C7.20942 15.9887 7.14927 16.3924 7.02898 16.7569C6.90911 17.1209 6.7059 17.4333 6.41935 17.6935C6.13279 17.9537 5.75387 18.1543 5.28 18.2955C4.80656 18.4368 4.21498 18.5085 3.50783 18.5085H0V8.4438L0 8.44336ZM2.62024 14.241V16.3817H3.42448C3.75744 16.3817 4.01607 16.3028 4.20123 16.1437C4.38597 15.9855 4.47834 15.7151 4.47834 15.3336C4.47834 14.9914 4.39499 14.7241 4.22873 14.5307C4.06247 14.3377 3.79911 14.2406 3.43823 14.2406H2.62024V14.241ZM2.62024 10.4058V12.2786H3.42448C4.03454 12.2786 4.33957 11.9542 4.33957 11.305C4.33957 10.9824 4.25408 10.752 4.08309 10.6134C3.9121 10.4748 3.67409 10.4053 3.36906 10.4053H2.62024V10.4058Z" fill="white"/>
<path d="M8.25498 18.4989V15.787L7.67285 15.6751V13.6258H10.8757V18.4989H8.25541H8.25498ZM7.81119 11.7058C7.81119 11.4478 7.84599 11.2299 7.91258 11.0534C7.9796 10.8774 8.07669 10.7357 8.20601 10.6265C8.33575 10.5174 8.49729 10.438 8.69147 10.3908C8.88566 10.3436 9.10734 10.3213 9.35695 10.3213C9.60656 10.3213 9.83039 10.344 10.0293 10.3908C10.2282 10.438 10.3945 10.5169 10.5285 10.6265C10.6626 10.7357 10.767 10.8774 10.8383 11.0534C10.9096 11.2294 10.9444 11.4478 10.9444 11.7058C10.9444 11.954 10.9096 12.1621 10.8404 12.3309C10.7708 12.4998 10.6694 12.633 10.535 12.7351C10.4009 12.8367 10.2347 12.9089 10.0357 12.9512C9.83727 12.9935 9.61086 13.0158 9.35652 13.0158C9.10691 13.0158 8.88523 12.9931 8.69105 12.9512C8.49686 12.9089 8.33532 12.8371 8.20558 12.7351C8.07626 12.6335 7.97917 12.4994 7.91215 12.3309C7.84513 12.1621 7.81076 11.954 7.81076 11.7058H7.81119Z" fill="white"/>
<path d="M14.3931 18.4999H11.7725V10.9532H13.8522L13.9837 11.7299C14.095 11.5958 14.2217 11.4692 14.3626 11.3502C14.504 11.2308 14.6582 11.1243 14.8292 11.0352C15.0006 10.9461 15.1853 10.8761 15.3817 10.8244C15.578 10.7723 15.7859 10.7451 16.0081 10.7451C16.4609 10.7451 16.8351 10.8142 17.1311 10.9532C17.4267 11.0922 17.6625 11.303 17.8361 11.5855C18.0092 11.8685 18.1295 12.2232 18.1987 12.6523C18.2683 13.0814 18.3026 13.5898 18.3026 14.1753V18.4994H15.6824V13.8977C15.6824 13.5631 15.6476 13.3149 15.5759 13.1558C15.5045 12.9972 15.3632 12.9179 15.1553 12.9179C14.9933 12.9179 14.8571 12.9455 14.7441 12.9998C14.6311 13.0542 14.5134 13.1291 14.3931 13.2231V18.4994V18.4999Z" fill="white"/>
<path d="M18.7227 19.3581C18.7227 19.2141 18.7459 19.0756 18.7923 18.9414C18.8382 18.8073 18.9031 18.6808 18.9843 18.564C19.0651 18.4477 19.1574 18.3381 19.2635 18.2365C19.3701 18.1349 19.4857 18.0431 19.6102 17.9638C19.4229 17.8346 19.2846 17.671 19.1965 17.4701C19.1063 17.2691 19.0625 17.041 19.0625 16.783C19.0625 16.6586 19.081 16.5321 19.1179 16.4006C19.1549 16.2692 19.2055 16.1449 19.273 16.0263C19.3374 15.9069 19.4186 15.7955 19.5132 15.6939C19.606 15.5946 19.7121 15.5054 19.8324 15.431C19.5411 15.2425 19.3104 14.977 19.139 14.6374C18.968 14.2947 18.8825 13.8781 18.8825 13.3871C18.8825 12.9825 18.9589 12.6202 19.1115 12.2927C19.2635 11.9678 19.4788 11.6902 19.7516 11.4621C20.0244 11.2313 20.3526 11.0548 20.7337 10.9309C21.1148 10.8071 21.5354 10.7451 21.9951 10.7451C22.1802 10.7451 22.3671 10.7625 22.5544 10.7946C22.7413 10.8267 22.9677 10.8739 23.2315 10.9385L25.7456 10.9309V12.6353L24.9968 12.5534C25.0337 12.6527 25.0638 12.7842 25.0866 12.9455C25.1098 13.1063 25.1214 13.2752 25.1214 13.449C25.1214 13.8558 25.0475 14.2154 24.8997 14.5305C24.7515 14.8428 24.5435 15.1062 24.2733 15.3169C24.0027 15.5277 23.6817 15.6863 23.3075 15.7928C22.9355 15.8998 22.5196 15.9542 22.0621 15.9542C21.9439 15.9542 21.8352 15.9493 21.7407 15.9417C21.6462 15.9319 21.5586 15.9216 21.4752 15.9091C21.4383 15.9488 21.4082 15.9934 21.385 16.0433C21.3622 16.0927 21.3506 16.1449 21.3506 16.1997C21.3506 16.3236 21.3923 16.4278 21.4752 16.512C21.5586 16.5963 21.6832 16.6381 21.8494 16.6381H22.8268C23.2289 16.6381 23.6031 16.6707 23.9498 16.7353C24.2965 16.7995 24.5994 16.9211 24.8559 17.0998C25.1124 17.2785 25.3134 17.5289 25.4586 17.8488C25.6043 18.1692 25.676 18.5832 25.676 19.0916C25.676 19.469 25.6 19.8086 25.4496 20.1111C25.2992 20.4137 25.0754 20.6721 24.7773 20.8825C24.4791 21.0932 24.1049 21.255 23.6564 21.3664C23.2079 21.4782 22.6837 21.5353 22.0805 21.5353C21.8498 21.5353 21.6071 21.5281 21.3528 21.5152C21.0984 21.5027 20.8467 21.4733 20.5945 21.4261C20.3449 21.3789 20.1073 21.3098 19.8805 21.218C19.6541 21.1262 19.4556 20.9997 19.2846 20.8383C19.1136 20.6775 18.9774 20.4761 18.8756 20.2332C18.7742 19.9926 18.7231 19.6998 18.7231 19.3572L18.7227 19.3581ZM20.8785 19.1273C20.8785 19.2066 20.8901 19.2886 20.9107 19.3679C20.9318 19.4472 20.9803 19.5194 21.0589 19.5813C21.1371 19.6437 21.2553 19.6954 21.4146 19.735C21.5719 19.7747 21.7867 19.7943 22.0595 19.7943C22.3297 19.7943 22.5467 19.7747 22.7108 19.7373C22.8749 19.6998 23.0021 19.6504 23.0919 19.588C23.1821 19.5261 23.2422 19.4539 23.2723 19.3697C23.302 19.2881 23.3187 19.1985 23.3187 19.1045C23.3187 18.9156 23.2633 18.7868 23.1524 18.72C23.0416 18.6527 22.8938 18.6184 22.7065 18.6184H21.2183C21.1169 18.6776 21.0357 18.7476 20.9739 18.8291C20.9111 18.9085 20.8789 19.0078 20.8789 19.1268L20.8785 19.1273ZM21.336 13.3795C21.336 13.8857 21.5672 14.1388 22.0268 14.1388C22.5003 14.1388 22.7361 13.8884 22.7361 13.3875C22.7361 13.1344 22.6786 12.941 22.563 12.8069C22.4496 12.6728 22.2743 12.6059 22.0406 12.6059C21.5715 12.6059 21.336 12.8639 21.336 13.3799V13.3795Z" fill="white"/>
</svg>
