<svg width="50" height="22" viewBox="0 0 50 22" fill="none" xmlns="http://www.w3.org/2000/svg">
<path fill-rule="evenodd" clip-rule="evenodd" d="M35.5494 7.49024C36.1257 6.56219 36.7677 5.68718 37.411 4.88452C38.6374 3.35426 40.5125 1.12785 42.6574 1.12785C43.7198 1.12785 44.6961 1.52019 45.4705 2.24465C46.2851 3.00641 46.7325 4.0176 46.7325 5.1317C46.7325 6.11817 46.2855 6.99812 45.7107 7.77202C46.3144 8.14548 46.8627 8.62726 47.3474 9.2097C48.5026 10.5984 49.0707 12.2509 49.0707 14.0549C49.0707 16.2219 48.2539 18.1275 46.6523 19.5953C45.0939 21.0235 43.1854 21.7295 41.072 21.7295C38.9406 21.7295 37.0263 20.997 35.5445 19.4577C35.3192 19.224 35.1129 18.9809 34.9241 18.7288C34.6186 19.127 34.265 19.4995 33.8626 19.8433C32.3606 21.1278 30.5418 21.7291 28.5689 21.7291C26.8024 21.7291 25.1562 21.2235 23.7086 20.2128C21.9881 19.0115 20.9564 17.283 20.9564 15.1699C20.9564 15.1658 20.9564 15.1618 20.9564 15.1577L18.783 19.256C18.0428 20.6518 16.8475 21.7695 15.1752 21.7695C14.1831 21.7695 13.2622 21.4172 12.5333 20.7449C12.4643 20.6815 12.3981 20.6159 12.335 20.5485C11.0524 21.3439 9.5814 21.7286 7.99554 21.7286C7.13278 21.7286 6.27768 21.6091 5.4505 21.3646C4.46835 21.0747 3.55108 20.6226 2.74373 19.9912C1.57686 19.0784 0.810059 17.8309 0.810059 16.3249C0.810059 15.3128 1.15922 14.3694 1.84132 13.6194C2.04721 13.3933 2.27338 13.1969 2.51621 13.0311C2.14768 12.4145 1.94854 11.6622 1.94854 10.8294C1.94854 10.3494 2.00937 9.84338 2.06974 9.36745L2.55766 5.5146C2.70904 4.31871 3.1456 3.16146 4.14127 2.41138C5.01349 1.75389 6.11864 1.59345 7.18279 1.59345H11.3096C13.7988 1.59345 15.9136 2.92102 15.9136 5.59774C15.9136 7.01925 15.5072 8.18054 14.5674 8.84567C14.8521 9.19083 14.9085 9.4452 15.1193 9.82136L18.3951 3.64413C19.1398 2.24016 20.3445 1.12695 22.0232 1.12695C22.9999 1.12695 23.9105 1.46716 24.6372 2.11881C24.6683 2.14668 24.6984 2.17499 24.7286 2.2033C24.8404 2.14218 24.9539 2.08286 25.0697 2.02623C26.1937 1.47435 27.3967 1.16695 28.6509 1.16695C30.4211 1.16695 32.038 1.7413 33.3801 2.89451C34.7682 4.08771 35.5048 5.67729 35.5499 7.48844L35.5494 7.49024Z" fill="#850001"/>
<path fill-rule="evenodd" clip-rule="evenodd" d="M34.7389 6.5942C35.3151 5.66616 35.9571 4.79114 36.6005 3.98849C37.8268 2.45822 39.7019 0.231817 41.8469 0.231817C42.9092 0.231817 43.886 0.624157 44.6605 1.34862C45.475 2.11038 45.9224 3.12156 45.9224 4.23567C45.9224 5.22213 45.4755 6.10209 44.9006 6.87599C45.5043 7.24945 46.0526 7.73122 46.5374 8.31367C47.6925 9.70236 48.2606 11.3549 48.2606 13.1588C48.2606 15.3259 47.4438 17.2314 45.8422 18.6992C44.2838 20.1275 42.3754 20.8335 40.2619 20.8335C38.1305 20.8335 36.2162 20.1014 34.7344 18.5617C34.5091 18.328 34.3028 18.0849 34.114 17.8328C33.8086 18.2309 33.4549 18.6035 33.0526 18.9473C31.5505 20.2317 29.7317 20.8331 27.7589 20.8331C25.9923 20.8331 24.3461 20.3275 22.8986 19.3167C21.178 18.1154 20.1463 16.3865 20.1463 14.2738C20.1463 14.2698 20.1463 14.2657 20.1463 14.2617L17.9729 18.3599C17.2327 19.7558 16.0375 20.8735 14.3651 20.8735C13.373 20.8735 12.4522 20.5212 11.7232 19.8493C11.6543 19.7855 11.588 19.7203 11.525 19.6529C10.2423 20.4484 8.77134 20.8331 7.18548 20.8331C6.32272 20.8331 5.46762 20.7135 4.64044 20.469C3.65829 20.1792 2.74102 19.727 1.93367 19.0956C0.7668 18.1828 0 16.9353 0 15.4293C0 14.4176 0.34916 13.4739 1.03126 12.7238C1.23715 12.4977 1.46332 12.3013 1.70615 12.1351C1.33762 11.5185 1.13849 10.7661 1.13849 9.93336C1.13849 9.45339 1.19931 8.94734 1.25968 8.47141L1.7476 4.61857C1.89898 3.42267 2.33554 2.26543 3.33121 1.51535C4.20343 0.857854 5.30858 0.696963 6.37273 0.696963H10.4996C12.9887 0.696963 15.1035 2.02454 15.1035 4.70126C15.1035 6.12276 14.5066 7.1762 13.5663 7.84133C13.8511 8.18648 14.0984 8.54826 14.3092 8.92487L17.585 2.74765C18.3298 1.34322 19.5345 0.230469 21.2131 0.230469C22.1899 0.230469 23.1004 0.570677 23.8271 1.22278C23.8582 1.25064 23.8884 1.27896 23.9186 1.30727C24.0303 1.24615 24.1438 1.18683 24.2596 1.1302C25.3837 0.578317 26.5866 0.270916 27.8409 0.270916C29.611 0.270916 31.2279 0.84527 32.5701 1.99847C33.9581 3.19167 34.6948 4.78126 34.7398 6.5924L34.7389 6.5942ZM22.5895 9.65607L21.9191 10.9203C22.4129 10.5706 22.9761 10.3428 23.5852 10.2623C23.5834 10.208 23.582 10.1527 23.582 10.0974C23.582 10.0758 23.582 10.0543 23.5825 10.0327C23.2338 9.95449 22.9004 9.8282 22.5891 9.65652L22.5895 9.65607Z" fill="#F43A3B"/>
<path fill-rule="evenodd" clip-rule="evenodd" d="M34.9912 6.19745C35.4999 5.41591 36.0499 4.67572 36.6005 3.98812C37.8268 2.45785 39.7019 0.231445 41.8469 0.231445C42.9092 0.231445 43.886 0.623786 44.66 1.34824C44.7839 1.46419 44.8988 1.58554 45.0056 1.71227L44.9686 1.67722C44.1942 0.952758 43.2174 0.560418 42.1555 0.560418C40.0105 0.560418 38.1354 2.78683 36.9091 4.31709C36.2658 5.11975 35.6233 5.99476 35.0475 6.9228L34.7389 6.59383L34.9912 6.19745ZM45.27 7.12279C45.6746 7.41446 46.0517 7.75782 46.3981 8.15106C46.0314 7.78389 45.6345 7.46795 45.2101 7.20549L45.2705 7.12324L45.27 7.12279ZM34.8196 18.649C34.7907 18.6202 34.7623 18.5914 34.7344 18.5618C34.6182 18.4409 34.5064 18.3173 34.4001 18.1919L34.4231 18.1623C34.5474 18.3281 34.6794 18.4908 34.82 18.649H34.8196ZM21.9191 18.502C20.9784 17.565 20.3716 16.4095 20.1981 15.0766L20.4554 14.5912C20.4554 14.5952 20.4554 14.5993 20.4554 14.6029C20.4554 16.1174 20.9852 17.4346 21.9191 18.5016V18.502ZM1.41917 18.6458C0.546491 17.7888 0 16.7017 0 15.4303C0 14.4182 0.34916 13.4748 1.03126 12.7248C1.23715 12.4987 1.46332 12.3023 1.70615 12.136C1.33762 11.5194 1.13849 10.7671 1.13849 9.93434C1.13849 9.45436 1.19931 8.94832 1.25968 8.47239L1.7476 4.61955C1.89898 3.42365 2.33554 2.2664 3.33121 1.51633C4.20343 0.85883 5.30858 0.697939 6.37273 0.697939H10.4996C12.0381 0.697939 13.4339 1.20533 14.275 2.22551C13.4221 1.42554 12.1715 1.02736 10.8082 1.02736H6.68134C5.61719 1.02736 4.5125 1.1878 3.63982 1.84575C2.64415 2.59582 2.20759 3.75307 2.05621 4.94897L1.56829 8.80181C1.50792 9.27819 1.4471 9.78379 1.4471 10.2638C1.4471 11.0965 1.64623 11.8484 2.01476 12.4655C1.77148 12.6313 1.54531 12.8277 1.33987 13.0542C0.657772 13.8043 0.308612 14.748 0.308612 15.7597C0.308612 16.8733 0.728505 17.8459 1.41917 18.6463V18.6458ZM14.3088 8.92585L17.5846 2.74863C18.3293 1.34465 19.5336 0.231445 21.2127 0.231445C22.1894 0.231445 23.1 0.571653 23.8267 1.22376C23.8577 1.25162 23.8879 1.27993 23.9177 1.30825C24.0294 1.24713 24.1434 1.1878 24.2587 1.13163C25.3828 0.579743 26.5857 0.272342 27.84 0.272342C29.6101 0.272342 31.227 0.846696 32.5692 1.9999C32.8116 2.20843 33.0341 2.42909 33.2368 2.66099C33.1224 2.54729 33.003 2.43673 32.8782 2.32932C31.5361 1.17612 29.9192 0.601764 28.149 0.601764C26.8943 0.601764 25.6918 0.909165 24.5678 1.46105C24.4524 1.51767 24.3389 1.57655 24.2267 1.63812C24.1965 1.6098 24.1664 1.58149 24.1357 1.55363C23.4095 0.901525 22.4985 0.561766 21.5218 0.561766C19.8426 0.561766 18.6384 1.67452 17.8936 3.07895L14.6179 9.25617L14.3092 8.9272L14.3088 8.92585ZM22.6084 10.5312C22.9058 10.4026 23.2202 10.3132 23.5482 10.2665L23.5829 10.0314L23.8915 10.3604C23.8911 10.382 23.8911 10.4035 23.8911 10.4256C23.8911 10.4808 23.892 10.5361 23.8938 10.5905C23.2847 10.6709 22.7215 10.8988 22.2277 11.2484L21.9191 10.9195C22.1953 10.7204 22.2935 10.6615 22.6084 10.5312Z" fill="#FF6161"/>
<path d="M7.09546 8.2455C7.62393 8.1237 8.10509 8.06303 8.5421 8.06303C9.88378 8.06303 10.975 8.55649 11.8152 9.54341C12.6149 10.4764 13.0145 11.6188 13.0145 12.9707C13.0145 14.5931 12.4824 15.9382 11.4187 17.0064C10.3546 18.0742 9.00975 18.6086 7.38334 18.6086C6.7463 18.6086 6.12952 18.5205 5.53347 18.3448C4.80136 18.1286 4.17152 17.8109 3.6426 17.3916C2.97852 16.8779 2.64648 16.2963 2.64648 15.6474C2.64648 15.2285 2.77849 14.8735 3.04295 14.5827C3.30741 14.2919 3.6426 14.1468 4.04943 14.1468C4.3612 14.1468 4.85948 14.3562 5.54383 14.7755C6.22819 15.1948 6.82784 15.4042 7.34279 15.4042C7.95281 15.4042 8.4574 15.1845 8.85747 14.745C9.25754 14.3054 9.45713 13.7819 9.45713 13.1733C9.45713 12.5514 9.29809 12.0476 8.97957 11.6624C8.66104 11.2773 8.197 11.0845 7.58698 11.0845C7.27522 11.0845 6.85532 11.1725 6.3264 11.3483C5.79793 11.524 5.38435 11.6121 5.08655 11.6121C4.21928 11.6121 3.78542 11.1254 3.78542 10.1519C3.78542 9.92227 3.81921 9.53667 3.88724 8.99602L4.37516 5.14273C4.47022 4.41288 4.68017 3.92616 5.00545 3.68257C5.29019 3.4664 5.8119 3.3581 6.57104 3.3581H10.6979C12.1346 3.3581 12.8528 3.87852 12.8528 4.91982C12.8528 5.94718 12.1752 6.46087 10.82 6.46087H7.32342L7.09636 8.2455H7.09546ZM14.5634 18.649C14.1805 18.649 13.8552 18.5241 13.5844 18.2738C13.3132 18.0234 13.1776 17.7093 13.1776 17.3309C13.1776 17.0199 13.2722 16.6887 13.4623 16.3372L19.9477 4.10862C20.3815 3.29742 20.8695 2.89205 21.4115 2.89205C21.7908 2.89205 22.1161 3.01384 22.3873 3.25698C22.6585 3.50011 22.7937 3.81111 22.7937 4.18996C22.7937 4.48748 22.6919 4.82859 22.4923 5.20744L16.0069 17.4361C15.5731 18.2437 15.0919 18.6495 14.5634 18.6495V18.649ZM30.7834 10.0301C32.4368 10.8683 33.2635 12.1258 33.2635 13.8021C33.2635 15.2218 32.7283 16.3912 31.6574 17.3107C30.641 18.1758 29.4074 18.6086 27.9572 18.6086C26.6831 18.6086 25.5311 18.2504 24.5012 17.5336C23.3627 16.7359 22.7937 15.722 22.7937 14.4915C22.7937 14.0996 22.9428 13.7342 23.2411 13.3963C23.5393 13.0583 23.8849 12.8893 24.2777 12.8893C24.7116 12.8893 25.1112 13.1122 25.477 13.5585C25.7888 13.9639 26.1073 14.3764 26.4326 14.7957C26.8665 15.242 27.3882 15.4649 27.9982 15.4649C28.5267 15.4649 28.9569 15.2789 29.2894 14.9072C29.6214 14.5355 29.7872 14.0861 29.7872 13.5585C29.7872 12.95 29.5638 12.5109 29.1164 12.2404C28.8452 12.0781 28.3505 11.9361 27.6324 11.8143C26.6971 11.6521 26.2294 11.1519 26.2294 10.3137C26.2294 9.85396 26.3515 9.50925 26.5952 9.2796C26.7984 9.0904 27.144 8.94164 27.6319 8.83333C28.6753 8.58975 29.1975 8.08281 29.1975 7.31251C29.1975 6.46086 28.7911 6.03482 27.9779 6.03482C27.3949 6.03482 26.8935 6.19706 26.4736 6.52154C26.4466 6.53502 26.1551 6.83253 25.5996 7.41363C25.2878 7.73811 24.9693 7.90034 24.644 7.90034C24.2511 7.90034 23.9191 7.76192 23.6479 7.48463C23.3767 7.20735 23.2415 6.87298 23.2415 6.48064C23.2415 6.07482 23.3704 5.65596 23.6276 5.22317C24.0344 4.52029 24.671 3.95896 25.5387 3.54011C26.352 3.13474 27.1854 2.9316 28.0392 2.9316C29.2452 2.9316 30.2891 3.31001 31.1699 4.06727C32.0507 4.82454 32.4913 5.79798 32.4913 6.98758C32.4913 8.19067 31.9218 9.20455 30.7834 10.0297V10.0301ZM40.5824 8.71199C41.1789 8.64413 41.5717 8.61042 41.7614 8.61042C43.0084 8.61042 44.0384 9.10388 44.8516 10.0908C45.6242 11.0103 46.0103 12.1051 46.0103 13.376C46.0103 14.8766 45.4683 16.1238 44.3839 17.1174C43.2999 18.1111 41.9916 18.6081 40.4603 18.6081C38.9289 18.6081 37.6751 18.1012 36.6992 17.0873C35.7234 16.0734 35.2355 14.7957 35.2355 13.2542C35.2355 11.1316 36.3942 8.6239 38.7118 5.73056C40.2296 3.83762 41.341 2.8916 42.0457 2.8916C42.4795 2.8916 42.8589 3.0435 43.1842 3.34776C43.5094 3.65201 43.6721 4.02053 43.6721 4.45287C43.6721 4.8178 43.4144 5.31126 42.8994 5.93325C42.5066 6.36604 42.1169 6.79838 41.7303 7.23116C41.3437 7.66395 40.9612 8.15741 40.5815 8.71154L40.5824 8.71199ZM38.6919 13.4268C38.6919 13.9711 38.8748 14.451 39.2407 14.8735C39.6065 15.2959 40.0606 15.5054 40.6026 15.5054C41.1446 15.5054 41.5987 15.2959 41.9646 14.8735C42.3304 14.451 42.5133 13.9711 42.5133 13.4268C42.5133 12.8691 42.334 12.3891 41.9745 11.99C41.6154 11.5878 41.1581 11.3883 40.6022 11.3883C40.0467 11.3883 39.5889 11.5878 39.2299 11.99C38.8708 12.3891 38.691 12.8691 38.691 13.4268H38.6919Z" fill="#850001"/>
<path d="M6.8977 8.02772C7.42617 7.90593 7.90734 7.84526 8.34435 7.84526C9.68602 7.84526 10.7772 8.33872 11.6174 9.32564C12.4171 10.2586 12.8167 11.401 12.8167 12.7529C12.8167 14.3753 12.2847 15.7204 11.221 16.7886C10.1568 17.8565 8.812 18.3908 7.18559 18.3908C6.54854 18.3908 5.93177 18.3027 5.33572 18.127C4.60361 17.9108 3.97377 17.5931 3.44485 17.1738C2.78077 16.6601 2.44873 16.0786 2.44873 15.4296C2.44873 15.0108 2.58074 14.6557 2.8452 14.3649C3.10966 14.0742 3.44485 13.929 3.85168 13.929C4.16344 13.929 4.66128 14.1384 5.34608 14.5577C6.03043 14.977 6.63009 15.1865 7.14504 15.1865C7.75506 15.1865 8.25965 14.9667 8.65972 14.5272C9.05934 14.0877 9.25937 13.5641 9.25937 12.9556C9.25937 12.3336 9.10033 11.8298 8.78136 11.4446C8.46284 11.059 7.99879 10.8667 7.38878 10.8667C7.07701 10.8667 6.65712 10.9548 6.1282 11.1305C5.59973 11.3062 5.18614 11.3943 4.88789 11.3943C4.02062 11.3943 3.58677 10.9076 3.58677 9.93415C3.58677 9.70405 3.62056 9.3189 3.68859 8.77825L4.17651 4.92495C4.27157 4.1951 4.48152 3.70838 4.8068 3.4648C5.09153 3.24863 5.61324 3.14032 6.37238 3.14032H10.4992C11.936 3.14032 12.6541 3.66075 12.6541 4.70204C12.6541 5.72941 11.9765 6.24309 10.6209 6.24309H7.12432L6.89725 8.02772H6.8977ZM14.3657 18.4313C13.9827 18.4313 13.6574 18.3063 13.3867 18.056C13.1154 17.8057 12.9803 17.4915 12.9803 17.1131C12.9803 16.8021 13.0749 16.4709 13.265 16.1195L19.7504 3.89085C20.1838 3.07965 20.6722 2.67428 21.2141 2.67428C21.5935 2.67428 21.9188 2.79607 22.19 3.0392C22.4612 3.28279 22.5964 3.59333 22.5964 3.97219C22.5964 4.26971 22.4945 4.61081 22.295 4.98967L15.8096 17.2183C15.3757 18.0259 14.8946 18.4317 14.3661 18.4317L14.3657 18.4313ZM30.5856 9.81235C32.239 10.6505 33.0658 11.908 33.0658 13.5843C33.0658 15.004 32.5305 16.1734 31.4596 17.0929C30.4432 17.958 29.2097 18.3908 27.7594 18.3908C26.4853 18.3908 25.3333 18.0326 24.3034 17.3158C23.1649 16.5181 22.5959 15.5042 22.5959 14.2737C22.5959 13.8818 22.745 13.5164 23.0433 13.1785C23.3415 12.8405 23.6871 12.6715 24.08 12.6715C24.5138 12.6715 24.9134 12.8945 25.2793 13.3407C25.591 13.7465 25.9096 14.1587 26.2348 14.578C26.6687 15.0242 27.1904 15.2471 27.8004 15.2471C28.3289 15.2471 28.7591 15.0611 29.0916 14.6894C29.4237 14.3178 29.5895 13.8679 29.5895 13.3407C29.5895 12.7322 29.366 12.2931 28.9186 12.0226C28.6474 11.8603 28.1527 11.7183 27.4346 11.5965C26.4993 11.4343 26.0316 10.9341 26.0316 10.0959C26.0316 9.63618 26.1537 9.29148 26.3975 9.06183C26.6007 8.87262 26.9462 8.72387 27.4341 8.61556C28.4776 8.37198 28.9997 7.86503 28.9997 7.09474C28.9997 6.24309 28.5934 5.81704 27.7801 5.81704C27.1972 5.81704 26.6957 5.97928 26.2758 6.30376C26.2488 6.31725 25.9573 6.61476 25.4018 7.1963C25.09 7.52078 24.7715 7.68302 24.4462 7.68302C24.0534 7.68302 23.7213 7.5446 23.4501 7.26731C23.1789 6.99002 23.0437 6.65566 23.0437 6.26376C23.0437 5.85794 23.1726 5.43909 23.4298 5.0063C23.8362 4.30341 24.4733 3.74209 25.341 3.32323C26.1542 2.91741 26.9877 2.71472 27.8414 2.71472C29.0475 2.71472 30.0914 3.09313 30.9721 3.8504C31.8529 4.60767 32.2935 5.5811 32.2935 6.77071C32.2935 7.97379 31.7241 8.98768 30.586 9.8128L30.5856 9.81235ZM40.3846 8.49422C40.9811 8.42636 41.3739 8.39265 41.5636 8.39265C42.8102 8.39265 43.8406 8.88611 44.6538 9.87303C45.4265 10.7925 45.8126 11.8873 45.8126 13.1583C45.8126 14.6589 45.2706 15.906 44.1861 16.8996C43.1017 17.8933 41.7938 18.3904 40.2625 18.3904C38.7311 18.3904 37.4773 17.8834 36.5015 16.8695C35.5256 15.8557 35.0377 14.578 35.0377 13.0365C35.0377 10.9139 36.1965 8.40613 38.514 5.51279C40.0318 3.61985 41.1433 2.67383 41.8479 2.67383C42.2818 2.67383 42.6611 2.82573 42.9864 3.12999C43.3117 3.43424 43.4743 3.80276 43.4743 4.2351C43.4743 4.60003 43.2166 5.09348 42.7017 5.71548C42.3088 6.14781 41.9191 6.5806 41.5325 7.01339C41.1464 7.44618 40.7635 7.93964 40.3837 8.49377L40.3846 8.49422ZM38.4937 13.209C38.4937 13.7533 38.6766 14.2333 39.0425 14.6557C39.4083 15.0782 39.8624 15.2876 40.4044 15.2876C40.9464 15.2876 41.4005 15.0782 41.7664 14.6557C42.1322 14.2333 42.3151 13.7533 42.3151 13.209C42.3151 12.6513 42.1358 12.1713 41.7763 11.7727C41.4172 11.3705 40.9599 11.1709 40.404 11.1709C39.8485 11.1709 39.3907 11.3705 39.0317 11.7727C38.6726 12.1718 38.4928 12.6518 38.4928 13.209H38.4937Z" fill="white"/>
<path d="M7.30453 7.94458C7.67576 7.87852 8.02177 7.84571 8.3439 7.84571C9.34768 7.84571 10.2113 8.1221 10.9344 8.67443C10.2911 8.28749 9.54906 8.09424 8.70883 8.09424C8.27181 8.09424 7.79065 8.15491 7.26218 8.2767L6.8959 8.02548L7.30453 7.94503V7.94458ZM3.9179 17.5055C3.75211 17.403 3.59442 17.2924 3.44485 17.1738C2.78077 16.6601 2.44873 16.0786 2.44873 15.4296C2.44873 15.0108 2.58074 14.6557 2.8452 14.3649C3.10966 14.0742 3.44485 13.929 3.85168 13.929C4.16344 13.929 4.66128 14.1384 5.34608 14.5577C6.03043 14.977 6.63009 15.1865 7.14504 15.1865C7.75506 15.1865 8.25965 14.9667 8.65972 14.5272C9.05934 14.0877 9.25937 13.5641 9.25937 12.9556C9.25937 12.3336 9.10034 11.8302 8.78181 11.4446C8.73811 11.3916 8.69126 11.3422 8.6417 11.2963C8.83813 11.3912 9.00663 11.5233 9.14674 11.6932C9.46526 12.0783 9.6243 12.5821 9.6243 13.2041C9.6243 13.8126 9.42427 14.3362 9.02465 14.7757C8.62503 15.2152 8.11999 15.435 7.50997 15.435C6.99502 15.435 6.39536 15.2256 5.71101 14.8063C5.02666 14.387 4.52837 14.1775 4.21661 14.1775C3.81023 14.1775 3.47458 14.3227 3.21012 14.6135C2.94566 14.9042 2.81366 15.2593 2.81366 15.6781C2.81366 16.3271 3.1457 16.9082 3.80978 17.4223C3.84537 17.4506 3.88141 17.4785 3.9179 17.5059V17.5055ZM4.29049 11.2918C3.82149 11.1022 3.58677 10.6496 3.58677 9.9337C3.58677 9.70405 3.62056 9.31845 3.68859 8.7778L4.17651 4.9245C4.27112 4.19465 4.48152 3.70793 4.8068 3.46435C5.09153 3.24818 5.61324 3.13987 6.37193 3.13987H10.4988C11.3124 3.13987 11.8954 3.30706 12.2482 3.64052C11.9026 3.47199 11.4413 3.38795 10.8637 3.38795H6.73686C5.97772 3.38795 5.45601 3.49626 5.17173 3.71243C4.84644 3.95601 4.6365 4.44228 4.54144 5.17258L4.05351 9.02588C3.98593 9.56652 3.95169 9.95212 3.95169 10.1818C3.95169 10.6784 4.06478 11.0482 4.29049 11.2914V11.2918ZM13.7471 18.3005C13.6173 18.2398 13.497 18.1585 13.3858 18.056C13.1145 17.8061 12.9789 17.4915 12.9789 17.1131C12.9789 16.8021 13.074 16.4709 13.2637 16.1195L19.749 3.89085C20.1829 3.07965 20.6708 2.67428 21.2128 2.67428C21.5926 2.67428 21.9174 2.79607 22.1886 3.0392L22.2071 3.05583C22.017 2.96685 21.8075 2.92236 21.5782 2.92236C21.0362 2.92236 20.5483 3.32773 20.1144 4.13892L13.6295 16.3675C13.4398 16.719 13.3448 17.0502 13.3448 17.3612C13.3448 17.7378 13.479 18.0511 13.7475 18.3005H13.7471ZM30.9861 10.0339C31.1447 10.1292 31.2938 10.229 31.4344 10.3332C31.2817 10.238 31.1199 10.1472 30.9496 10.0609L30.9861 10.0344V10.0339ZM24.5535 17.4812C24.4692 17.4282 24.3854 17.3729 24.303 17.3154C23.1645 16.5176 22.5955 15.5038 22.5955 14.2733C22.5955 13.8814 22.7446 13.516 23.0428 13.178C23.3411 12.8401 23.6867 12.6711 24.0795 12.6711C24.4066 12.6711 24.7148 12.7978 25.0031 13.0517C24.8238 12.9637 24.6377 12.9192 24.4449 12.9192C24.052 12.9192 23.7065 13.0881 23.4082 13.4261C23.11 13.7641 22.9609 14.129 22.9609 14.5213C22.9609 15.7096 23.492 16.6961 24.5539 17.4807L24.5535 17.4812ZM26.7876 15.0009C27.0927 15.1649 27.4301 15.2467 27.8 15.2467C28.3285 15.2467 28.7587 15.0606 29.0912 14.689C29.4232 14.3173 29.589 13.8679 29.589 13.3403C29.589 12.854 29.4462 12.476 29.1606 12.2055C29.2056 12.2266 29.2462 12.2482 29.2831 12.2702C29.7305 12.5408 29.954 12.9798 29.954 13.5883C29.954 14.1155 29.7882 14.5654 29.4561 14.937C29.1241 15.3087 28.6938 15.4948 28.1649 15.4948C27.6409 15.4948 27.1819 15.3303 26.7876 15.0004V15.0009ZM26.8007 11.4019C26.288 11.1521 26.0312 10.7166 26.0312 10.0959C26.0312 9.63618 26.1533 9.29148 26.397 9.06183C26.6002 8.87262 26.9458 8.72387 27.4337 8.61556C28.4771 8.37198 28.9993 7.86503 28.9993 7.09474C28.9993 6.68352 28.9042 6.37162 28.715 6.15905C29.148 6.32713 29.3642 6.72172 29.3642 7.34326C29.3642 8.11401 28.8425 8.62095 27.7986 8.86409C27.3107 8.9724 26.9652 9.12115 26.762 9.31036C26.5182 9.54046 26.3961 9.88516 26.3961 10.3445C26.3961 10.7943 26.5308 11.1471 26.8007 11.4024V11.4019ZM23.861 7.56078C23.711 7.49202 23.5736 7.39405 23.4492 7.26686C23.178 6.98957 23.0428 6.65521 23.0428 6.26287C23.0428 5.85749 23.1717 5.43819 23.429 5.0054C23.8353 4.30251 24.4724 3.74119 25.3401 3.32234C26.1533 2.91696 26.9868 2.71383 27.8405 2.71383C28.9308 2.71383 29.8882 3.02302 30.7131 3.64187C29.9747 3.18886 29.139 2.96235 28.2059 2.96235C27.3522 2.96235 26.5187 3.16504 25.7055 3.57086C24.8382 3.98972 24.2012 4.55104 23.7943 5.25393C23.5366 5.68671 23.4082 6.10557 23.4082 6.51139C23.4082 6.90328 23.5438 7.2381 23.8146 7.51539C23.8299 7.53112 23.8457 7.5464 23.8615 7.56123L23.861 7.56078ZM40.9658 8.4322C41.2447 8.40568 41.4438 8.3922 41.5627 8.3922C42.4665 8.3922 43.2567 8.65151 43.9325 9.17059C43.3419 8.81735 42.6737 8.64073 41.9277 8.64073C41.738 8.64073 41.3447 8.67443 40.7486 8.74229L40.3878 8.49512L40.9658 8.43265V8.4322ZM37.4751 17.6578C37.1246 17.4425 36.7997 17.1796 36.501 16.8695C35.5252 15.8557 35.0373 14.578 35.0373 13.0365C35.0373 10.9139 36.196 8.40613 38.5136 5.51279C40.0314 3.61985 41.1428 2.67383 41.8479 2.67383C42.262 2.67383 42.6269 2.8127 42.9422 3.08999C42.7192 2.97808 42.476 2.92236 42.2133 2.92236C41.5087 2.92236 40.3972 3.86883 38.8789 5.76132C36.5614 8.65466 35.4027 11.1624 35.4027 13.285C35.4027 14.8265 35.8906 16.1037 36.8664 17.1181C37.0588 17.3181 37.2615 17.4978 37.4755 17.6583L37.4751 17.6578ZM39.607 15.1056C39.8471 15.2269 40.1129 15.2876 40.404 15.2876C40.946 15.2876 41.4001 15.0782 41.7659 14.6557C42.1317 14.2333 42.3151 13.7533 42.3151 13.209C42.3151 12.6513 42.1354 12.1713 41.7763 11.7727C41.7231 11.7134 41.6682 11.6586 41.6109 11.6078C41.8065 11.7066 41.9835 11.8442 42.1412 12.0208C42.5003 12.4194 42.68 12.8994 42.68 13.4571C42.68 14.0014 42.4971 14.4813 42.1313 14.9038C41.7655 15.3262 41.3113 15.5357 40.7694 15.5357C40.322 15.5357 39.9345 15.3928 39.6074 15.1056H39.607Z" fill="#EBECEC"/>
</svg>
