<svg width="40" height="22" viewBox="0 0 40 22" fill="none" xmlns="http://www.w3.org/2000/svg">
<path d="M39.4835 13.3354C39.2697 12.8606 38.9929 12.4155 38.6604 12.0117C38.4213 11.676 38.1495 11.364 37.8488 11.0799C37.7444 10.9833 37.6343 10.8924 37.5242 10.8072C37.8365 10.6131 38.0921 10.343 38.2662 10.0232C38.4492 9.68861 38.5342 9.31086 38.5117 8.93182C38.4892 8.55278 38.3601 8.18724 38.1386 7.8757L38.0227 7.70527C38.0923 7.62005 38.156 7.53483 38.2198 7.44393C38.644 6.79524 38.8638 6.03841 38.8517 5.26801C38.8615 4.50146 38.6418 3.7489 38.2198 3.10345C38.1432 2.98537 38.06 2.87157 37.9705 2.76258C37.54 2.1412 36.9363 1.65412 36.2314 1.35931C35.5095 1.05964 34.7313 0.912515 33.9474 0.927532H31.3156C30.9031 0.925031 30.4992 1.04376 30.1562 1.26841C29.8126 1.04502 29.4092 0.926409 28.9968 0.927532H24.6375C24.3193 0.927508 24.0052 0.999228 23.7198 1.13715C23.4343 1.27506 23.185 1.47548 22.9912 1.72291C22.7785 1.58233 22.5535 1.46064 22.3188 1.35931C21.5991 1.05911 20.8226 0.911945 20.0406 0.927532H17.4029C16.9712 0.927993 16.5502 1.05893 16.1972 1.30249C15.8445 1.05826 15.4232 0.92725 14.9914 0.927532H14.1277C13.7503 0.927518 13.3799 1.02725 13.0554 1.21621C12.731 1.40518 12.4646 1.6764 12.2842 2.00129L12.1915 1.89903C12.0048 1.60238 11.7438 1.35742 11.4334 1.18739C11.1229 1.01737 10.7733 0.927917 10.4176 0.927532H9.52489C9.04454 0.92933 8.57962 1.09393 8.20899 1.3934C8.1212 1.34234 8.0302 1.2968 7.93653 1.25704C7.64262 1.14221 7.34033 1.04916 7.03221 0.978664C6.47308 0.85373 5.90138 0.790841 5.3279 0.791182C4.53274 0.775437 3.74298 0.922496 3.00912 1.22296C2.31919 1.50169 1.72417 1.96664 1.29323 2.56373C0.900856 3.1461 0.698663 3.83173 0.713533 4.52945C0.695669 5.12668 0.84825 5.71695 1.1541 6.23382C1.24258 6.38326 1.34546 6.52404 1.46134 6.65424C1.32933 6.80484 1.22001 6.9732 1.13671 7.15419L0.92802 7.62005C0.764573 7.98363 0.712083 8.38583 0.776894 8.77802C0.841705 9.17022 1.02104 9.53562 1.29323 9.83006C1.32455 9.88648 1.36144 9.93976 1.40337 9.98913C1.15188 10.1799 0.948081 10.4244 0.807455 10.704C0.666828 10.9836 0.593074 11.2909 0.591797 11.6026V19.3859C0.595958 19.9055 0.803459 20.4038 1.17149 20.7778C1.35645 21.0645 1.61107 21.3018 1.91255 21.4683C2.21403 21.6349 2.55296 21.7256 2.89898 21.7323H8.69593C9.07581 21.7307 9.44809 21.6278 9.77284 21.4347C10.0976 21.2415 10.3626 20.9653 10.5394 20.6358C11.0124 20.9846 11.5335 21.2657 12.0871 21.4709C12.9034 21.7668 13.7676 21.915 14.6378 21.9084C15.5124 21.9165 16.3811 21.7662 17.2001 21.4653C17.9744 21.18 18.6837 20.7475 19.287 20.1927C19.8851 19.6423 20.3642 18.9796 20.6956 18.244C20.8081 17.9898 20.9011 17.7277 20.9739 17.46V19.3689C20.978 19.8885 21.1855 20.3867 21.5536 20.7608C21.7407 21.0571 22.0017 21.3017 22.3121 21.4717C22.6225 21.6417 22.9719 21.7314 23.3274 21.7323H24.8056C25.3617 21.7308 25.8946 21.5136 26.2878 21.1283C26.681 20.7429 26.9026 20.2207 26.9041 19.6757V17.2043C26.9718 17.4486 27.057 17.6878 27.1592 17.9202C27.363 18.391 27.628 18.834 27.9476 19.2382C28.1908 19.5757 28.4665 19.8896 28.7708 20.1756C29.382 20.7343 30.0988 21.1705 30.8808 21.4596C31.6971 21.7554 32.5613 21.9036 33.4315 21.897C34.3043 21.9056 35.1711 21.7553 35.988 21.4539C36.7641 21.1686 37.4752 20.7362 38.0807 20.1813C38.693 19.6156 39.1796 18.932 39.5098 18.1733C39.8399 17.4147 40.0067 16.5974 39.9994 15.7726C40.0044 14.9337 39.8286 14.1032 39.4835 13.3354Z" fill="#1E2866"/>
<path d="M38.9207 12.6365C38.7034 12.1635 38.4269 11.7188 38.0975 11.3128C37.8582 10.9757 37.5843 10.6635 37.2802 10.381C37.1816 10.2845 37.0657 10.1992 36.9555 10.1083C37.2721 9.91754 37.5304 9.64672 37.7033 9.32432C37.8819 8.99244 37.9643 8.61902 37.9419 8.2445C37.9194 7.86998 37.7928 7.50861 37.5758 7.19953L37.4599 7.0291C37.5288 6.94572 37.5927 6.85845 37.6512 6.76776C38.0807 6.12113 38.3028 5.36328 38.2888 4.59184C38.3033 3.81758 38.0834 3.05648 37.657 2.40456C37.5758 2.28525 37.4831 2.16594 37.3903 2.05232C36.9588 1.43448 36.3551 0.951307 35.6512 0.660411C34.9307 0.36282 34.1548 0.215765 33.373 0.228635H30.7528C30.3406 0.228189 29.9373 0.346747 29.5934 0.56951C29.2506 0.344548 28.8466 0.225785 28.434 0.228635H24.0573C23.7384 0.229445 23.4238 0.301498 23.1375 0.43932C22.8513 0.577141 22.6008 0.777103 22.4052 1.02401C22.194 0.884387 21.971 0.762743 21.7386 0.660411C21.018 0.36282 20.2421 0.215765 19.4604 0.228635H16.8401C16.4056 0.228454 15.982 0.361557 15.6286 0.609279C15.2798 0.361038 14.8596 0.227751 14.4286 0.228635H13.5649C13.1875 0.228621 12.817 0.328349 12.4926 0.517318C12.1682 0.706286 11.9018 0.977499 11.7214 1.30239L11.6287 1.20013C11.442 0.903484 11.181 0.658523 10.8705 0.488496C10.5601 0.31847 10.2105 0.22902 9.85481 0.228635H8.98527C8.50492 0.230433 8.03999 0.395028 7.66936 0.694498C7.58158 0.643443 7.49058 0.597901 7.3969 0.558148C7.1027 0.444129 6.80047 0.351094 6.49258 0.279767C5.92589 0.153128 5.34632 0.0902275 4.76509 0.0922851C3.95791 0.0742279 3.15592 0.223294 2.41153 0.529742C1.73425 0.811062 1.1516 1.27379 0.730415 1.86484C0.337248 2.44896 0.135036 3.13663 0.150721 3.83623C0.131614 4.4336 0.28428 5.0242 0.591289 5.54061C0.673852 5.68155 0.766853 5.81637 0.869542 5.94398C0.740075 6.0953 0.632765 6.26357 0.55071 6.44393L0.34202 6.90979C0.179035 7.27213 0.126251 7.67288 0.190006 8.0639C0.253762 8.45492 0.431347 8.8196 0.701431 9.11412C0.736749 9.1694 0.775467 9.22252 0.81737 9.27319C0.563842 9.46255 0.35823 9.7066 0.216481 9.98641C0.074732 10.2662 0.000656484 10.5743 0 10.8867V18.67C0.00296977 19.1898 0.210644 19.6885 0.579695 20.0619C0.766817 20.3582 1.02787 20.6028 1.33824 20.7728C1.6486 20.9428 1.99803 21.0325 2.35356 21.0334H8.15051C8.52993 21.033 8.90206 20.9312 9.22687 20.739C9.55168 20.5468 9.81687 20.2715 9.99394 19.9426C10.4686 20.2874 10.9894 20.5665 11.5417 20.772C13.194 21.356 15.0024 21.356 16.6546 20.772C17.4293 20.4847 18.1385 20.0503 18.7415 19.4938C19.3285 18.9369 19.7956 18.2704 20.1154 17.5337C20.2254 17.2786 20.3183 17.0167 20.3937 16.7497V18.67C20.3966 19.1898 20.6043 19.6885 20.9734 20.0619C21.1605 20.3582 21.4215 20.6028 21.7319 20.7728C22.0423 20.9428 22.3917 21.0325 22.7472 21.0334H24.2254C24.781 21.0334 25.3139 20.8175 25.7073 20.433C26.1006 20.0486 26.3224 19.5269 26.3239 18.9825V16.5054C26.3906 16.7499 26.4759 16.9892 26.579 17.2213C26.7927 17.6979 27.0695 18.1448 27.4022 18.5507C28.1203 19.5651 29.1378 20.3402 30.318 20.772C31.9685 21.3546 33.7747 21.3546 35.4251 20.772C36.2009 20.4835 36.9118 20.0492 37.5178 19.4938C38.4372 18.6273 39.0643 17.5061 39.315 16.2804C39.5657 15.0548 39.4282 13.7833 38.9207 12.6365Z" fill="#454EA0"/>
<path d="M5.45544 7.51209C5.23992 7.5677 5.01735 7.59258 4.79459 7.58594C4.38143 7.58455 3.97091 7.52133 3.57723 7.39846C3.36854 7.33029 3.17531 7.25643 2.99754 7.17689C2.9326 7.1465 2.86212 7.12915 2.79023 7.12587C2.71835 7.1226 2.64653 7.13346 2.579 7.15781C2.51146 7.18217 2.44959 7.21953 2.39702 7.26769C2.34446 7.31585 2.30226 7.37384 2.27292 7.43823L2.02944 7.87569C2.00036 7.93833 1.98419 8.00599 1.98186 8.07478C1.97953 8.14357 1.99109 8.21213 2.01586 8.27653C2.04064 8.34093 2.07815 8.3999 2.12624 8.45006C2.17433 8.50021 2.23206 8.54057 2.2961 8.5688C2.56173 8.68779 2.83709 8.78471 3.11927 8.85854C3.65668 8.99639 4.2101 9.06514 4.7656 9.06307C5.36066 9.08666 5.9539 8.98395 6.50469 8.76196C6.91613 8.59637 7.27029 8.3183 7.52495 7.96091C7.75125 7.63856 7.87068 7.25568 7.86697 6.86442C7.8799 6.55349 7.80573 6.24502 7.65248 5.97247C7.51163 5.73791 7.31212 5.54239 7.07279 5.40434C6.83334 5.2531 6.57395 5.13459 6.30179 5.0521C6.01774 4.9612 5.7221 4.89303 5.45544 4.83054L4.67865 4.6601C4.47452 4.62021 4.2786 4.54725 4.09896 4.44421C4.03433 4.40966 3.98034 4.35876 3.94262 4.29681C3.90489 4.23485 3.88481 4.16412 3.88447 4.09197C3.88442 3.97866 3.92321 3.86862 3.99461 3.7795C4.09089 3.67414 4.21542 3.59737 4.35402 3.55793C4.57925 3.50204 4.81199 3.48096 5.04386 3.49544C5.36352 3.49536 5.6816 3.53935 5.98876 3.62611C6.15867 3.67184 6.32523 3.72878 6.4873 3.79655C6.55269 3.82332 6.62287 3.83706 6.69374 3.83695C6.76461 3.83684 6.83474 3.82289 6.90005 3.79592C6.96535 3.76894 7.02452 3.72948 7.07408 3.67984C7.12365 3.6302 7.16262 3.57138 7.18873 3.5068L7.38582 3.04662C7.41309 2.98178 7.42691 2.91227 7.42648 2.84214C7.42604 2.77201 7.41137 2.70267 7.38331 2.63815C7.35526 2.57364 7.31437 2.51525 7.26305 2.46638C7.21173 2.41751 7.15099 2.37914 7.08438 2.35351C6.86214 2.26654 6.63346 2.19627 6.40034 2.1433C5.95947 2.04277 5.5081 1.9932 5.05545 1.99559C4.46037 1.97164 3.86705 2.07436 3.31637 2.2967C2.90336 2.46216 2.5459 2.73769 2.28451 3.09207C2.05468 3.42766 1.93531 3.82421 1.94249 4.22832C1.93126 4.54341 2.00739 4.85558 2.16277 5.13164C2.30957 5.36163 2.5078 5.5559 2.74247 5.69977C2.98259 5.84981 3.24181 5.96824 3.51346 6.052C3.78813 6.14615 4.06895 6.22207 4.35402 6.27925C4.63807 6.33607 4.89314 6.39856 5.12501 6.45537C5.3292 6.49802 5.52497 6.57285 5.70471 6.67694C5.77138 6.714 5.82688 6.76768 5.86556 6.83253C5.90425 6.89738 5.92475 6.9711 5.92499 7.04622C5.92619 7.15389 5.88461 7.2578 5.80905 7.33597C5.70872 7.42368 5.58688 7.48436 5.45544 7.51209Z" fill="#D32679"/>
<path d="M11.9863 9.08569C12.423 9.11129 12.8605 9.05165 13.2735 8.91024C13.6865 8.76882 14.0667 8.54845 14.3921 8.26191C14.692 7.94827 14.9234 7.57783 15.0719 7.17336C15.2205 6.76888 15.283 6.33891 15.2558 5.90987V2.65451C15.2543 2.51537 15.1968 2.38243 15.0959 2.28457C14.9949 2.18671 14.8587 2.13183 14.7167 2.13184H13.8529C13.711 2.13183 13.5747 2.18671 13.4738 2.28457C13.3728 2.38243 13.3154 2.51537 13.3138 2.65451V5.85306C13.3566 6.29903 13.2331 6.74509 12.966 7.10861C12.8441 7.23763 12.6947 7.33865 12.5283 7.40446C12.362 7.47026 12.1828 7.49922 12.0037 7.48926C11.8237 7.49928 11.6437 7.47037 11.4764 7.40459C11.3091 7.33881 11.1586 7.23776 11.0356 7.10861C10.7641 6.74702 10.6382 6.29997 10.682 5.85306V2.65451C10.6805 2.51537 10.623 2.38243 10.5221 2.28457C10.4211 2.18671 10.2849 2.13183 10.1429 2.13184H9.25017C9.10818 2.13183 8.97193 2.18671 8.87099 2.28457C8.77005 2.38243 8.71258 2.51537 8.71105 2.65451V5.90987C8.68228 6.33811 8.74303 6.76761 8.88955 7.17204C9.03608 7.57648 9.26531 7.94734 9.5632 8.26191C9.89087 8.5503 10.274 8.7717 10.69 8.91315C11.1061 9.05461 11.5468 9.11326 11.9863 9.08569Z" fill="#D32679"/>
<path d="M18.5618 7.17056H19.7733C20.3386 7.18245 20.8999 7.07591 21.4197 6.85809C21.8532 6.675 22.2236 6.37318 22.4863 5.98886C22.7455 5.59084 22.8768 5.12573 22.8631 4.65376C22.872 4.18594 22.741 3.72579 22.4863 3.33003C22.2269 2.94278 21.8555 2.64015 21.4197 2.4608C20.8989 2.24704 20.3377 2.14439 19.7733 2.15969H17.1299C17.0594 2.15894 16.9894 2.17191 16.9241 2.19784C16.8587 2.22377 16.7992 2.26215 16.7491 2.31076C16.6989 2.35937 16.6591 2.41724 16.632 2.48103C16.6048 2.54482 16.5908 2.61325 16.5908 2.68237V8.44316C16.5908 8.51228 16.6048 8.58071 16.632 8.6445C16.6591 8.70828 16.6989 8.76616 16.7491 8.81477C16.7992 8.86338 16.8587 8.90176 16.9241 8.92769C16.9894 8.95362 17.0594 8.96658 17.1299 8.96583H18.0227C18.1646 8.96584 18.3009 8.91096 18.4018 8.8131C18.5028 8.71523 18.5603 8.5823 18.5618 8.44316V7.17056ZM20.5791 3.89816C20.6825 3.99133 20.7633 4.10605 20.8155 4.23387C20.8676 4.36169 20.8899 4.49936 20.8806 4.63672C20.8912 4.7759 20.8697 4.91565 20.8175 5.04551C20.7653 5.17537 20.6838 5.29199 20.5791 5.38664C20.3135 5.57857 19.9866 5.67125 19.6574 5.64798H18.5618V3.64818H19.6516C19.9816 3.61767 20.3115 3.70659 20.5791 3.89816Z" fill="#D32679"/>
<path d="M28.8695 7.46085H25.7971V6.21098H28.3535C28.4955 6.21098 28.6318 6.1561 28.7327 6.05824C28.8336 5.96038 28.8911 5.82744 28.8926 5.6883V5.29629C28.8926 5.15617 28.8358 5.02178 28.7347 4.92269C28.6336 4.8236 28.4965 4.76794 28.3535 4.76794H25.7971V3.63169H28.7709C28.9098 3.62292 29.0399 3.56186 29.1339 3.46126C29.2279 3.36066 29.2785 3.22834 29.2752 3.09197V2.65451C29.2737 2.51537 29.2162 2.38243 29.1153 2.28457C29.0144 2.18671 28.8781 2.13183 28.7361 2.13184H24.3594C24.2174 2.13183 24.0812 2.18671 23.9803 2.28457C23.8793 2.38243 23.8218 2.51537 23.8203 2.65451V8.44371C23.8218 8.58285 23.8793 8.71578 23.9803 8.81365C24.0812 8.91151 24.2174 8.96639 24.3594 8.96638H28.8695C28.94 8.96713 29.01 8.95417 29.0753 8.92824C29.1407 8.90231 29.2002 8.86393 29.2503 8.81532C29.3005 8.76671 29.3403 8.70884 29.3674 8.64505C29.3946 8.58126 29.4086 8.51283 29.4086 8.44371V7.98921C29.4086 7.84908 29.3518 7.71469 29.2507 7.6156C29.1496 7.51652 29.0124 7.46085 28.8695 7.46085Z" fill="#D32679"/>
<path d="M32.4739 7.13647H33.5463L34.6477 8.72154C34.6977 8.79213 34.7645 8.84971 34.8422 8.88931C34.92 8.92891 35.0065 8.94932 35.0941 8.94879H35.8941C35.9919 8.94868 36.0878 8.92252 36.1715 8.8731C36.2553 8.82368 36.3238 8.75287 36.3696 8.66824C36.4155 8.58361 36.437 8.48835 36.4319 8.39266C36.4267 8.29697 36.3951 8.20445 36.3405 8.12501L35.4129 6.80128C35.8127 6.62371 36.154 6.3404 36.3984 5.98318C36.6578 5.58735 36.7891 5.12398 36.7752 4.65376C36.7841 4.18594 36.6531 3.72579 36.3984 3.33003C36.139 2.94278 35.7676 2.64015 35.3318 2.4608C34.811 2.24704 34.2498 2.14439 33.6855 2.15969H31.042C30.9715 2.15894 30.9015 2.17191 30.8362 2.19784C30.7708 2.22377 30.7113 2.26215 30.6612 2.31076C30.611 2.35937 30.5712 2.41724 30.5441 2.48103C30.5169 2.54482 30.5029 2.61325 30.5029 2.68237V8.44316C30.5029 8.51228 30.5169 8.58071 30.5441 8.6445C30.5712 8.70828 30.611 8.76616 30.6612 8.81477C30.7113 8.86338 30.7708 8.90176 30.8362 8.92769C30.9015 8.95362 30.9715 8.96658 31.042 8.96583H31.9348C32.0768 8.96584 32.213 8.91096 32.314 8.8131C32.4149 8.71523 32.4724 8.5823 32.4739 8.44316V7.13647ZM34.4912 3.89816C34.5946 3.99133 34.6754 4.10605 34.7276 4.23387C34.7797 4.36169 34.802 4.49936 34.7927 4.63672C34.8033 4.7759 34.7818 4.91565 34.7296 5.04551C34.6774 5.17537 34.5959 5.29199 34.4912 5.38664C34.2256 5.57857 33.8987 5.67125 33.5695 5.64798H32.4739V3.64818H33.5637C33.8937 3.61767 34.2236 3.70659 34.4912 3.89816Z" fill="#D32679"/>
<path d="M3.86708 10.7158H2.38886C2.31474 10.7155 2.24138 10.7304 2.17345 10.7595C2.10553 10.7885 2.04453 10.8312 1.99435 10.8846C1.94417 10.9381 1.90591 11.0012 1.88201 11.0699C1.85811 11.1387 1.84909 11.2116 1.85554 11.2839V19.0673C1.85554 19.1359 1.86933 19.2039 1.89613 19.2673C1.92293 19.3307 1.96222 19.3883 2.01174 19.4369C2.06126 19.4854 2.12006 19.5239 2.18476 19.5502C2.24947 19.5764 2.31882 19.5899 2.38886 19.5899H8.1858C8.25584 19.5899 8.32519 19.5764 8.3899 19.5502C8.4546 19.5239 8.51339 19.4854 8.56292 19.4369C8.61244 19.3883 8.65172 19.3307 8.67853 19.2673C8.70533 19.2039 8.71912 19.1359 8.71912 19.0673V18.1015C8.71912 17.9628 8.66293 17.8299 8.56292 17.7319C8.4629 17.6338 8.32725 17.5788 8.1858 17.5788H4.4004V11.2839C4.40684 11.2116 4.39783 11.1387 4.37393 11.0699C4.35003 11.0012 4.31176 10.9381 4.26158 10.8846C4.2114 10.8312 4.1504 10.7885 4.08248 10.7595C4.01455 10.7304 3.94119 10.7155 3.86708 10.7158Z" fill="#D32679"/>
<path d="M17.6807 11.853C17.227 11.43 16.6907 11.1015 16.1039 10.8872C15.4645 10.6536 14.7864 10.538 14.104 10.5463C13.4217 10.5395 12.7439 10.655 12.1041 10.8872C11.5161 11.1025 10.978 11.4309 10.5215 11.853C10.0737 12.2621 9.71651 12.7572 9.47224 13.3074C9.09044 14.1622 8.98633 15.1114 9.17404 16.0261C9.36176 16.9409 9.8322 17.7769 10.5215 18.4205C10.9812 18.8414 11.5209 19.1695 12.1099 19.3863C12.7497 19.6185 13.4275 19.7341 14.1098 19.7272C14.7922 19.7355 15.4703 19.6199 16.1097 19.3863C16.6903 19.1737 17.2237 18.8535 17.6807 18.4433C18.1304 18.0256 18.4892 17.5231 18.7358 16.9661C18.9882 16.387 19.1183 15.7637 19.1183 15.1339C19.1183 14.5041 18.9882 13.8809 18.7358 13.3017C18.4849 12.7554 18.1264 12.263 17.6807 11.853ZM16.3474 16.1708C16.2344 16.4672 16.0608 16.7378 15.8373 16.9661C15.6217 17.19 15.3585 17.3645 15.0663 17.4774C14.4492 17.7124 13.7646 17.7124 13.1475 17.4774C12.8561 17.3631 12.5932 17.1887 12.3765 16.9661C12.1624 16.7383 11.995 16.4721 11.8838 16.1821C11.6404 15.5173 11.6404 14.7903 11.8838 14.1255C12.0014 13.8301 12.1767 13.5599 12.3997 13.3301C12.6178 13.1092 12.8804 12.9351 13.1707 12.8188C13.7878 12.5838 14.4724 12.5838 15.0895 12.8188C15.3805 12.9338 15.6433 13.1081 15.8605 13.3301C16.0854 13.5584 16.2609 13.829 16.3764 14.1255C16.6239 14.7954 16.6239 15.5292 16.3764 16.1992L16.3474 16.1708Z" fill="#D32679"/>
<path d="M19.9994 12.7156H22.2312V19.0389C22.2328 19.178 22.2902 19.3109 22.3912 19.4088C22.4921 19.5067 22.6284 19.5615 22.7704 19.5615H24.2486C24.3186 19.5615 24.388 19.548 24.4527 19.5217C24.5174 19.4955 24.5762 19.457 24.6257 19.4084C24.6752 19.3599 24.7145 19.3023 24.7413 19.2389C24.7681 19.1755 24.7819 19.1075 24.7819 19.0389V12.7156H27.0137C27.1557 12.7141 27.2913 12.6578 27.3912 12.5589C27.4911 12.46 27.5471 12.3264 27.547 12.1873V11.2839C27.5535 11.2116 27.5445 11.1387 27.5206 11.0699C27.4967 11.0012 27.4584 10.9381 27.4082 10.8846C27.3581 10.8312 27.2971 10.7885 27.2291 10.7595C27.1612 10.7304 27.0878 10.7155 27.0137 10.7158H19.9994C19.9294 10.7158 19.86 10.7293 19.7953 10.7556C19.7306 10.7819 19.6718 10.8204 19.6223 10.8689C19.5728 10.9174 19.5335 10.9751 19.5067 11.0385C19.4799 11.1019 19.4661 11.1699 19.4661 11.2385V12.1702C19.4638 12.2406 19.4758 12.3106 19.5015 12.3763C19.5272 12.442 19.566 12.5021 19.6157 12.5529C19.6654 12.6037 19.7249 12.6442 19.7908 12.6722C19.8567 12.7001 19.9276 12.7149 19.9994 12.7156Z" fill="#D32679"/>
<path d="M36.498 11.8525C36.0444 11.4296 35.508 11.101 34.9213 10.8867C33.6283 10.4323 32.2144 10.4323 30.9214 10.8867C30.3314 11.1014 29.7913 11.4298 29.333 11.8525C28.8852 12.2617 28.528 12.7568 28.2838 13.3069C27.902 14.1617 27.7979 15.1109 27.9856 16.0257C28.1733 16.9404 28.6437 17.7764 29.333 18.4201C29.7928 18.8409 30.3325 19.1691 30.9214 19.3859C32.2144 19.8403 33.6283 19.8403 34.9213 19.3859C35.5053 19.1688 36.0408 18.8427 36.498 18.4258C36.9523 18.0013 37.3139 17.4909 37.5609 16.9255C37.808 16.3601 37.9354 15.7514 37.9354 15.1363C37.9354 14.5212 37.808 13.9125 37.5609 13.3471C37.3139 12.7817 36.9523 12.2713 36.498 11.8469V11.8525ZM35.1647 16.1703C35.0479 16.4661 34.8726 16.7364 34.6488 16.9657C34.4322 17.1883 34.1692 17.3626 33.8778 17.477C33.5719 17.5969 33.245 17.6567 32.9155 17.6531C32.588 17.6567 32.2629 17.5969 31.959 17.477C31.6668 17.3641 31.4036 17.1895 31.188 16.9657C30.9618 16.7362 30.7861 16.4635 30.6721 16.1646C30.4246 15.4947 30.4246 14.7609 30.6721 14.091C30.7876 13.7944 30.9631 13.5239 31.188 13.2956C31.4052 13.0735 31.668 12.8992 31.959 12.7843C32.2629 12.6644 32.588 12.6045 32.9155 12.6081C33.245 12.6045 33.5719 12.6644 33.8778 12.7843C34.1681 12.9006 34.4307 13.0747 34.6488 13.2956C34.8718 13.5254 35.0471 13.7955 35.1647 14.091C35.4123 14.7609 35.4123 15.4947 35.1647 16.1646V16.1703Z" fill="#D32679"/>
<path d="M4.92751 6.87545C4.71349 6.92852 4.49319 6.95336 4.27246 6.94931C3.8659 6.93829 3.46335 6.86742 3.07829 6.7391C2.87971 6.67946 2.68594 6.6054 2.49859 6.51753C2.43366 6.48714 2.36317 6.46979 2.29129 6.46651C2.21941 6.46324 2.14758 6.4741 2.08005 6.49845C2.01252 6.52281 1.95065 6.56017 1.89808 6.60833C1.84551 6.65649 1.80331 6.71448 1.77397 6.77887L1.55949 7.23905C1.50247 7.36729 1.49906 7.51234 1.55001 7.64301C1.60096 7.77369 1.70219 7.87955 1.83194 7.93785C2.09541 8.05576 2.36891 8.15081 2.64931 8.22191C3.18228 8.36416 3.7317 8.43863 4.28405 8.44348C4.87895 8.46478 5.47169 8.36215 6.02314 8.14237C6.43452 7.97133 6.78962 7.69213 7.0492 7.33563C7.27282 7.01202 7.39199 6.62999 7.39122 6.23915C7.40725 5.94909 7.34365 5.66012 7.20703 5.40232C7.07041 5.14453 6.86577 4.92735 6.61442 4.77339C6.3743 4.62334 6.11508 4.50491 5.84343 4.42115C5.55938 4.33593 5.26374 4.26208 4.99708 4.20526L4.22029 4.03483C4.01675 3.99293 3.82115 3.92009 3.64059 3.81894C3.57551 3.78346 3.5213 3.73156 3.48358 3.66862C3.44587 3.60569 3.42602 3.53401 3.4261 3.46102C3.42466 3.34748 3.4636 3.237 3.53625 3.14855C3.62909 3.04315 3.7524 2.96787 3.88986 2.93266C4.10402 2.86955 4.32718 2.84077 4.55071 2.84744C4.87428 2.85143 5.19589 2.89727 5.50721 2.98379C5.67655 3.03128 5.843 3.08819 6.00574 3.15423C6.13224 3.1953 6.26978 3.189 6.39182 3.13654C6.51385 3.08408 6.61174 2.98919 6.6666 2.87017L6.86369 2.40431C6.8908 2.33911 6.90435 2.26927 6.90353 2.19887C6.90271 2.12847 6.88754 2.05895 6.85892 1.99438C6.83029 1.92981 6.78879 1.8715 6.73685 1.82286C6.68491 1.77423 6.62358 1.73627 6.55646 1.71119C6.3362 1.62421 6.10945 1.55393 5.87821 1.50099C5.43489 1.40328 4.98192 1.35374 4.52752 1.35327C3.94239 1.33681 3.36012 1.43933 2.81742 1.65438C2.41236 1.82274 2.06452 2.10058 1.81455 2.45544C1.58011 2.78888 1.4603 3.18692 1.47253 3.59169C1.46472 3.89669 1.53867 4.19837 1.68702 4.4666C1.83216 4.69787 2.03073 4.89248 2.26671 5.03473C2.50659 5.18664 2.76581 5.30697 3.03771 5.39264C3.31169 5.4781 3.59039 5.54828 3.87247 5.60285L4.64346 5.77897C4.84767 5.82442 5.0433 5.90111 5.22316 6.00622C5.28957 6.04309 5.34456 6.09688 5.38232 6.16189C5.42008 6.2269 5.4392 6.30071 5.43764 6.3755C5.44012 6.48064 5.4006 6.58257 5.3275 6.65956C5.2182 6.76782 5.07929 6.84279 4.92751 6.87545Z" fill="#FEC108"/>
<path d="M11.4842 8.44412C11.9213 8.46927 12.3592 8.40888 12.7722 8.26647C13.1852 8.12406 13.5652 7.90248 13.89 7.61466C14.1954 7.30589 14.4323 6.93857 14.586 6.53577C14.7396 6.13296 14.8066 5.70337 14.7827 5.27398V2.01862C14.7838 1.94551 14.7692 1.87299 14.7399 1.80574C14.7106 1.73849 14.6673 1.67801 14.6126 1.62822C14.558 1.57842 14.4933 1.54041 14.4228 1.51665C14.3522 1.49289 14.2773 1.4839 14.203 1.49027H13.3566C13.2856 1.48951 13.2152 1.50265 13.1494 1.52894C13.0837 1.55522 13.0239 1.59411 12.9737 1.64332C12.9235 1.69254 12.8838 1.75109 12.857 1.81553C12.8302 1.87998 12.8168 1.94903 12.8175 2.01862V5.21149C12.8591 5.65913 12.7357 6.10656 12.4697 6.47272C12.3455 6.59992 12.1946 6.69928 12.0275 6.764C11.8604 6.82872 11.681 6.85727 11.5016 6.84769C11.3223 6.85615 11.1433 6.82709 10.9764 6.76243C10.8094 6.69778 10.6585 6.59902 10.5335 6.47272C10.2655 6.10733 10.14 5.65982 10.1799 5.21149V2.01862C10.1807 1.94903 10.1673 1.87998 10.1405 1.81553C10.1136 1.75109 10.074 1.69254 10.0237 1.64332C9.97353 1.59411 9.91379 1.55522 9.84803 1.52894C9.78227 1.50265 9.71182 1.48951 9.6408 1.49027H8.74808C8.67755 1.49026 8.60772 1.50397 8.54264 1.53059C8.47755 1.55721 8.4185 1.59622 8.3689 1.64536C8.3193 1.6945 8.28013 1.75279 8.25368 1.81686C8.22722 1.88093 8.21399 1.94951 8.21476 2.01862V5.27398C8.18625 5.70228 8.24825 6.13173 8.39688 6.53547C8.5455 6.9392 8.77755 7.30853 9.0785 7.62034C9.40371 7.90715 9.7839 8.12769 10.1969 8.26912C10.6099 8.41054 11.0475 8.47003 11.4842 8.44412Z" fill="#FEC108"/>
<path d="M18.0569 6.52864H19.2685C19.8333 6.54285 20.3947 6.43823 20.9148 6.22185C21.3576 6.04243 21.7338 5.73453 21.9929 5.33947C22.2519 4.94442 22.3815 4.48114 22.364 4.01184C22.3751 3.53661 22.2441 3.06859 21.9872 2.66539C21.7243 2.27767 21.3515 1.9736 20.9148 1.79047C20.3934 1.579 19.8326 1.47645 19.2685 1.48937H16.6251C16.4821 1.48937 16.3449 1.54503 16.2438 1.64412C16.1427 1.7432 16.0859 1.87759 16.0859 2.01772V7.78419C16.0859 7.92432 16.1427 8.05871 16.2438 8.1578C16.3449 8.25688 16.4821 8.31255 16.6251 8.31255H17.5178C17.6608 8.31255 17.7979 8.25688 17.899 8.1578C18.0001 8.05871 18.0569 7.92432 18.0569 7.78419V6.52864ZM20.0684 3.27328C20.1722 3.36642 20.2536 3.48099 20.3068 3.60871C20.3599 3.73643 20.3834 3.87412 20.3757 4.01184C20.3826 4.14862 20.3586 4.28521 20.3055 4.41188C20.2524 4.53856 20.1715 4.6522 20.0684 4.74472C19.8062 4.93907 19.4802 5.03209 19.1525 5.00606H18.0569V3.01194H19.1525C19.4802 2.98591 19.8062 3.07893 20.0684 3.27328Z" fill="#FEC108"/>
<path d="M28.3705 6.81827H25.2691V5.60248H27.8198C27.9627 5.60248 28.0999 5.54682 28.201 5.44773C28.3021 5.34865 28.3589 5.21426 28.3589 5.07413V4.6878C28.3596 4.61821 28.3462 4.54916 28.3194 4.48471C28.2926 4.42027 28.2529 4.36172 28.2027 4.3125C28.1525 4.26329 28.0927 4.2244 28.027 4.19812C27.9612 4.17183 27.8908 4.15869 27.8198 4.15945H25.2691V3.0232H28.2429C28.3844 3.0232 28.52 2.96813 28.62 2.87011C28.7201 2.77209 28.7762 2.63914 28.7762 2.50052V2.01761C28.777 1.9485 28.7638 1.87992 28.7373 1.81585C28.7109 1.75178 28.6717 1.69349 28.6221 1.64435C28.5725 1.59521 28.5135 1.5562 28.4484 1.52958C28.3833 1.50296 28.3135 1.48925 28.2429 1.48926H23.8546C23.7841 1.48925 23.7143 1.50296 23.6492 1.52958C23.5841 1.5562 23.5251 1.59521 23.4755 1.64435C23.4259 1.69349 23.3867 1.75178 23.3602 1.81585C23.3338 1.87992 23.3206 1.9485 23.3213 2.01761V7.78409C23.3213 7.92324 23.3773 8.05677 23.4772 8.1557C23.577 8.25462 23.7127 8.31095 23.8546 8.31244H28.3705C28.5134 8.31244 28.6506 8.25678 28.7517 8.15769C28.8528 8.0586 28.9096 7.92421 28.9096 7.78409V7.34663C28.9096 7.2065 28.8528 7.07211 28.7517 6.97303C28.6506 6.87394 28.5134 6.81827 28.3705 6.81827Z" fill="#FEC108"/>
<path d="M31.969 6.50138H33.0414L34.1487 8.08077C34.1967 8.15232 34.2621 8.21106 34.339 8.25172C34.4159 8.29237 34.5019 8.31367 34.5892 8.3137H35.395C35.4932 8.31327 35.5894 8.28655 35.6733 8.23643C35.7571 8.18631 35.8254 8.11469 35.8708 8.02931C35.9161 7.94393 35.9368 7.84804 35.9306 7.75197C35.9244 7.65591 35.8915 7.56333 35.8356 7.48424L34.9081 6.17187C35.3287 5.98691 35.6835 5.68327 35.9272 5.29975C36.1708 4.91622 36.2923 4.47021 36.2761 4.01868C36.2872 3.54345 36.1562 3.07543 35.8993 2.67222C35.6364 2.28451 35.2636 1.98044 34.8269 1.79731C34.3055 1.58584 33.7447 1.48329 33.1806 1.4962H30.5372C30.3942 1.4962 30.2571 1.55187 30.156 1.65095C30.0548 1.75004 29.998 1.88443 29.998 2.02456V7.78535C29.998 7.92548 30.0548 8.05987 30.156 8.15895C30.2571 8.25804 30.3942 8.3137 30.5372 8.3137H31.4299C31.5729 8.3137 31.71 8.25804 31.8111 8.15895C31.9122 8.05987 31.969 7.92548 31.969 7.78535V6.50138ZM33.9805 3.27443C34.0843 3.36758 34.1658 3.48215 34.2189 3.60987C34.272 3.73759 34.2955 3.87528 34.2878 4.013C34.2947 4.14978 34.2707 4.28637 34.2176 4.41304C34.1645 4.53971 34.0836 4.65335 33.9805 4.74588C33.7188 4.9412 33.3924 5.03433 33.0646 5.00722H31.969V3.0131H33.0646C33.3924 2.98598 33.7188 3.07911 33.9805 3.27443Z" fill="#FEC108"/>
<path d="M3.36213 10.0918H1.88391C1.74193 10.0933 1.60629 10.1496 1.50643 10.2485C1.40658 10.3475 1.35058 10.481 1.35059 10.6202V18.3978C1.35058 18.5369 1.40658 18.6705 1.50643 18.7694C1.60629 18.8683 1.74193 18.9246 1.88391 18.9261H7.68085C7.82283 18.9246 7.95847 18.8683 8.05832 18.7694C8.15818 18.6705 8.21418 18.5369 8.21417 18.3978V17.4661C8.21417 17.3974 8.20038 17.3295 8.17357 17.266C8.14677 17.2026 8.10749 17.145 8.05797 17.0965C8.00844 17.0479 7.94965 17.0094 7.88494 16.9832C7.82024 16.9569 7.75089 16.9434 7.68085 16.9434H3.90124V10.6202C3.90124 10.48 3.84444 10.3456 3.74334 10.2465C3.64224 10.1475 3.50511 10.0918 3.36213 10.0918Z" fill="#FEC108"/>
<path d="M17.1889 11.2217C16.7334 10.801 16.1975 10.4728 15.6121 10.2559C14.3191 9.80143 12.9052 9.80143 11.6122 10.2559C11.0226 10.4713 10.4827 10.7996 10.0239 11.2217C9.58145 11.633 9.22849 12.1277 8.98621 12.6761C8.7375 13.2552 8.60938 13.8771 8.60938 14.5054C8.60938 15.1337 8.7375 15.7557 8.98621 16.3348C9.23037 16.8867 9.58749 17.3837 10.0355 17.7949C10.4943 18.2169 11.0342 18.5452 11.6238 18.7607C12.9168 19.2151 14.3307 19.2151 15.6237 18.7607C16.2089 18.5459 16.7448 18.2195 17.2005 17.8006C17.6598 17.3794 18.024 16.8685 18.2696 16.301C18.5152 15.7335 18.6368 15.1218 18.6265 14.5054C18.6351 13.8775 18.5107 13.2546 18.2613 12.6761C18.0025 12.1283 17.6384 11.6345 17.1889 11.2217ZM15.8556 15.5451C15.7436 15.8398 15.5765 16.1115 15.3629 16.3462C15.1447 16.5671 14.8822 16.7412 14.5919 16.8575C14.2852 16.9747 13.9587 17.0344 13.6296 17.0336C13.3023 17.0345 12.9777 16.9747 12.6731 16.8575C12.3814 16.7406 12.1171 16.5666 11.8963 16.3462C11.6762 16.1131 11.5031 15.8413 11.3861 15.5451C11.2551 15.2137 11.1902 14.8608 11.1948 14.5054C11.189 14.15 11.254 13.7968 11.3861 13.4658C11.5031 13.1713 11.6762 12.9014 11.8963 12.6704C12.1171 12.45 12.3814 12.276 12.6731 12.1591C12.9759 12.0425 13.2984 11.9828 13.6238 11.983C13.9529 11.9822 14.2794 12.0419 14.5861 12.1591C14.8764 12.2754 15.1389 12.4495 15.3571 12.6704C15.5789 12.9011 15.754 13.171 15.873 13.4658C16.0005 13.7979 16.0635 14.1506 16.0585 14.5054C16.0567 14.8613 15.9879 15.2137 15.8556 15.5451Z" fill="#FEC108"/>
<path d="M19.5137 12.0746H21.7398V18.3978C21.7397 18.5369 21.7957 18.6705 21.8956 18.7694C21.9955 18.8683 22.1311 18.9246 22.2731 18.9261H23.7513C23.8933 18.9246 24.0289 18.8683 24.1288 18.7694C24.2286 18.6705 24.2846 18.5369 24.2846 18.3978V12.0746H26.5048C26.6478 12.0746 26.785 12.0189 26.8861 11.9198C26.9872 11.8207 27.044 11.6863 27.044 11.5462V10.6202C27.044 10.48 26.9872 10.3456 26.8861 10.2465C26.785 10.1475 26.6478 10.0918 26.5048 10.0918H19.5137C19.3707 10.0918 19.2336 10.1475 19.1325 10.2465C19.0314 10.3456 18.9746 10.48 18.9746 10.6202V11.5462C18.9746 11.6156 18.9886 11.6843 19.0156 11.7484C19.0427 11.8125 19.0825 11.8707 19.1325 11.9198C19.1826 11.9689 19.242 12.0078 19.3074 12.0343C19.3728 12.0609 19.4429 12.0746 19.5137 12.0746Z" fill="#FEC108"/>
<path d="M35.9929 11.2217C35.5374 10.8011 35.0015 10.4729 34.4161 10.2559C33.1251 9.80141 31.713 9.80141 30.422 10.2559C29.8306 10.4713 29.2888 10.7995 28.8279 11.2217C28.3745 11.6461 28.0137 12.1561 27.7672 12.721C27.5207 13.2859 27.3936 13.8939 27.3936 14.5083C27.3936 15.1227 27.5207 15.7307 27.7672 16.2956C28.0137 16.8605 28.3745 17.3706 28.8279 17.7949C29.2922 18.2184 29.8381 18.5468 30.4336 18.7607C31.7246 19.2153 33.1367 19.2153 34.4277 18.7607C35.0129 18.5459 35.5488 18.2196 36.0045 17.8006C36.4631 17.3786 36.8272 16.8678 37.0737 16.3005C37.3202 15.7333 37.4437 15.122 37.4363 14.5055C37.443 13.876 37.3126 13.2523 37.0537 12.6761C36.8004 12.1281 36.44 11.634 35.9929 11.2217ZM34.6596 15.5452C34.5429 15.8427 34.3676 16.1149 34.1437 16.3462C33.9265 16.5683 33.6637 16.7426 33.3727 16.8575C33.068 16.9748 32.7435 17.0345 32.4162 17.0336C32.087 17.0344 31.7606 16.9747 31.4539 16.8575C31.1636 16.7412 30.901 16.5671 30.6829 16.3462C30.461 16.1134 30.2859 15.8417 30.167 15.5452C30.0406 15.2127 29.9777 14.8603 29.9815 14.5055C29.9765 14.1506 30.0394 13.798 30.167 13.4658C30.2859 13.171 30.461 12.9011 30.6829 12.6704C30.901 12.4496 31.1636 12.2755 31.4539 12.1591C31.7606 12.042 32.087 11.9822 32.4162 11.983C32.7435 11.9821 33.068 12.0419 33.3727 12.1591C33.6637 12.2741 33.9265 12.4484 34.1437 12.6704C34.3674 12.8997 34.5427 13.17 34.6596 13.4658C34.7898 13.7973 34.8528 14.1504 34.8451 14.5055C34.8516 14.8605 34.7887 15.2134 34.6596 15.5452Z" fill="#FEC108"/>
<path d="M5.16499 7.14323C4.94947 7.19885 4.7269 7.22372 4.50414 7.21709C4.09047 7.21636 3.67955 7.15116 3.28678 7.02392C3.08852 6.96337 2.89482 6.88934 2.70708 6.80236C2.64215 6.77196 2.57166 6.75461 2.49978 6.75134C2.4279 6.74806 2.35607 6.75892 2.28854 6.78328C2.22101 6.80763 2.15914 6.84499 2.10657 6.89315C2.054 6.94131 2.0118 6.9993 1.98246 7.06369L1.77377 7.52956C1.71583 7.65489 1.71005 7.79744 1.75769 7.92688C1.80532 8.05632 1.9026 8.16244 2.02884 8.22267C2.29465 8.33972 2.57 8.43474 2.85201 8.50673C3.38859 8.64926 3.9424 8.71997 4.49834 8.71694C5.0932 8.73772 5.68583 8.63511 6.23742 8.41583C6.64536 8.24684 6.99538 7.96689 7.24609 7.60909C7.47308 7.28707 7.59258 6.90398 7.58811 6.51261C7.60075 6.19488 7.52244 5.88001 7.36203 5.60361C7.21776 5.37167 7.019 5.17688 6.78234 5.03549C6.54037 4.88876 6.28158 4.77053 6.01134 4.68325C5.72729 4.59803 5.43165 4.52417 5.16499 4.46736L4.3882 4.29692C4.18406 4.25704 3.98815 4.18408 3.8085 4.08103C3.74388 4.04649 3.68989 3.99558 3.65216 3.93363C3.61444 3.87168 3.59436 3.80094 3.59401 3.7288C3.61405 3.61151 3.67563 3.50489 3.76792 3.42769C3.8642 3.32232 3.98873 3.24555 4.12733 3.20612C4.33022 3.14593 4.54146 3.11717 4.7534 3.1209C5.07333 3.12282 5.3914 3.16872 5.69831 3.25725C5.86862 3.29933 6.03531 3.35441 6.19684 3.42201C6.26188 3.44894 6.33172 3.46296 6.40232 3.46323C6.47292 3.46351 6.54287 3.45004 6.60812 3.42362C6.67337 3.39719 6.73262 3.35833 6.78243 3.3093C6.83224 3.26026 6.87161 3.20202 6.89827 3.13795L7.09537 2.67777C7.12273 2.61252 7.13664 2.54261 7.13628 2.47207C7.13592 2.40153 7.1213 2.33176 7.09327 2.26679C7.06525 2.20182 7.02436 2.14293 6.97298 2.09353C6.9216 2.04413 6.86075 2.00519 6.79393 1.97897C6.56306 1.89555 6.3268 1.82722 6.0867 1.77445C5.65338 1.67567 5.20989 1.6261 4.765 1.62673C4.17011 1.6056 3.5774 1.70823 3.02591 1.92784C2.62699 2.10087 2.28269 2.37552 2.02884 2.72322C1.79797 3.05832 1.67851 3.45521 1.68682 3.85947C1.67458 4.17284 1.75081 4.48345 1.9071 4.7571C2.05292 4.98785 2.25135 5.18232 2.4868 5.32523C2.72812 5.47312 2.98706 5.59141 3.25779 5.67747C3.53604 5.76837 3.83749 5.84222 4.09835 5.90472C4.35921 5.96721 4.63746 6.01834 4.86934 6.08084C5.07353 6.12349 5.2693 6.19831 5.44904 6.3024C5.50058 6.33813 5.54357 6.38442 5.57502 6.43807C5.60647 6.49172 5.62561 6.55144 5.63113 6.61307C5.63665 6.67471 5.6284 6.73678 5.60696 6.79498C5.58553 6.85317 5.55142 6.9061 5.50701 6.95007C5.41187 7.04224 5.29406 7.10878 5.16499 7.14323Z" fill="white"/>
<path d="M11.6995 8.71637C12.1375 8.74096 12.576 8.67922 12.9892 8.53479C13.4025 8.39037 13.7819 8.1662 14.1052 7.87555C14.405 7.56296 14.6363 7.19351 14.7849 6.78998C14.9334 6.38644 14.9961 5.95736 14.9689 5.52919V2.28519C14.9689 2.14506 14.9122 2.01067 14.811 1.91159C14.7099 1.8125 14.5728 1.75684 14.4298 1.75684H13.5661C13.4231 1.75684 13.286 1.8125 13.1849 1.91159C13.0838 2.01067 13.027 2.14506 13.027 2.28519V5.48374C13.0687 5.92962 12.9452 6.37532 12.6792 6.73929C12.5566 6.86738 12.407 6.96777 12.2408 7.0335C12.0746 7.09923 11.8958 7.12873 11.7169 7.11994C11.5332 7.13217 11.3491 7.10438 11.1777 7.03857C11.0063 6.97275 10.8519 6.87055 10.7256 6.73929C10.455 6.37723 10.3292 5.93055 10.372 5.48374V2.28519C10.372 2.14506 10.3152 2.01067 10.2141 1.91159C10.113 1.8125 9.97584 1.75684 9.83285 1.75684H8.9865C8.84352 1.75684 8.70639 1.8125 8.60529 1.91159C8.50418 2.01067 8.44738 2.14506 8.44738 2.28519V5.54055C8.41879 5.96526 8.47856 6.39124 8.62305 6.79262C8.76754 7.19401 8.99375 7.56244 9.28794 7.87555C9.61209 8.16664 9.99254 8.39104 10.4068 8.53547C10.821 8.67989 11.2606 8.74141 11.6995 8.71637Z" fill="white"/>
<path d="M18.2602 6.79622H19.4717C20.0501 6.81565 20.6259 6.71094 21.1587 6.48943C21.5838 6.29715 21.9439 5.98961 22.1963 5.60315C22.4548 5.20485 22.586 4.73994 22.5731 4.26806C22.5877 3.79062 22.4565 3.31978 22.1963 2.91592C21.9409 2.53891 21.5809 2.24127 21.1587 2.05805C20.6372 1.84658 20.0765 1.74403 19.5123 1.75694H16.8399C16.6969 1.75694 16.5598 1.81261 16.4587 1.9117C16.3576 2.01078 16.3008 2.14517 16.3008 2.2853V8.05177C16.3 8.12137 16.3135 8.19041 16.3403 8.25486C16.3671 8.31931 16.4068 8.37786 16.457 8.42707C16.5072 8.47629 16.5669 8.51518 16.6327 8.54146C16.6985 8.56774 16.7689 8.58089 16.8399 8.58013H17.7327C17.8756 8.58013 18.0128 8.52446 18.1139 8.42538C18.215 8.32629 18.2718 8.1919 18.2718 8.05177L18.2602 6.79622ZM20.2717 3.54086C20.3757 3.63512 20.4571 3.75069 20.5102 3.87934C20.5633 4.00799 20.5868 4.14654 20.579 4.2851C20.5908 4.42388 20.5703 4.56347 20.5191 4.69337C20.4679 4.82327 20.3873 4.94009 20.2833 5.03503C20.0196 5.2313 19.6918 5.32627 19.3616 5.30205H18.2602V3.27952H19.3616C19.6911 3.25367 20.0188 3.3466 20.2833 3.54086H20.2717Z" fill="white"/>
<path d="M28.5793 7.09153H25.4779V5.84166H28.0344C28.1774 5.84166 28.3145 5.78599 28.4156 5.68691C28.5167 5.58782 28.5735 5.45343 28.5735 5.3133V4.92698C28.5735 4.78685 28.5167 4.65246 28.4156 4.55337C28.3145 4.45428 28.1774 4.39862 28.0344 4.39862H25.4779V3.26237H28.4518C28.5947 3.26237 28.7319 3.2067 28.833 3.10762C28.9341 3.00853 28.9909 2.87414 28.9909 2.73401V2.28519C28.9909 2.14506 28.9341 2.01067 28.833 1.91159C28.7319 1.8125 28.5947 1.75684 28.4518 1.75684H24.0577C23.9147 1.75684 23.7776 1.8125 23.6765 1.91159C23.5754 2.01067 23.5186 2.14506 23.5186 2.28519V8.05166C23.5186 8.19179 23.5754 8.32618 23.6765 8.42527C23.7776 8.52436 23.9147 8.58002 24.0577 8.58002H28.5793C28.6503 8.58078 28.7208 8.56764 28.7865 8.54135C28.8523 8.51507 28.912 8.47618 28.9622 8.42696C29.0124 8.37775 29.0521 8.3192 29.0789 8.25475C29.1058 8.19031 29.1192 8.12126 29.1184 8.05166V7.61421C29.1184 7.54509 29.1044 7.47666 29.0773 7.41287C29.0501 7.34908 29.0103 7.29121 28.9602 7.2426C28.91 7.19399 28.8505 7.15561 28.7852 7.12968C28.7198 7.10375 28.6498 7.09078 28.5793 7.09153Z" fill="white"/>
<path d="M32.1742 6.76781H33.2467L34.3481 8.35288C34.398 8.42346 34.4648 8.48105 34.5426 8.52065C34.6204 8.56025 34.7068 8.58066 34.7945 8.58013H35.5944C35.6922 8.58002 35.7881 8.55386 35.8719 8.50444C35.9557 8.45502 36.0241 8.38421 36.07 8.29958C36.1158 8.21495 36.1374 8.11969 36.1322 8.024C36.1271 7.92831 36.0955 7.83579 36.0408 7.75635L35.1133 6.43262C35.5319 6.24716 35.8848 5.94404 36.1274 5.56171C36.3699 5.17937 36.4911 4.73505 36.4756 4.2851C36.4902 3.80767 36.359 3.33683 36.0988 2.93296C35.849 2.55131 35.4929 2.24771 35.0727 2.05805C34.5513 1.84658 33.9906 1.74403 33.4264 1.75694H30.754C30.611 1.75694 30.4739 1.81261 30.3728 1.9117C30.2717 2.01078 30.2149 2.14517 30.2149 2.2853V8.05177C30.2141 8.12137 30.2275 8.19041 30.2543 8.25486C30.2812 8.31931 30.3208 8.37786 30.3711 8.42707C30.4213 8.47629 30.481 8.51518 30.5468 8.54146C30.6125 8.56774 30.683 8.58089 30.754 8.58013H31.6467C31.7897 8.58013 31.9268 8.52446 32.0279 8.42538C32.129 8.32629 32.1858 8.1919 32.1858 8.05177L32.1742 6.76781ZM34.1858 3.54086C34.2897 3.63512 34.3711 3.75069 34.4242 3.87934C34.4774 4.00799 34.5008 4.14654 34.493 4.2851C34.5048 4.42388 34.4844 4.56347 34.4332 4.69337C34.382 4.82327 34.3013 4.94009 34.1974 5.03503C33.9337 5.2313 33.6059 5.32627 33.2757 5.30205H32.1742V3.27952H33.2757C33.6051 3.25367 33.9329 3.3466 34.1974 3.54086H34.1858Z" fill="white"/>
<path d="M3.57593 10.3633H2.09771C1.95573 10.3633 1.81947 10.4182 1.71853 10.516C1.61759 10.6139 1.56012 10.7468 1.55859 10.886V18.6693C1.56012 18.8084 1.61759 18.9414 1.71853 19.0392C1.81947 19.1371 1.95573 19.192 2.09771 19.1919H7.89466C8.03204 19.1861 8.16181 19.1284 8.25687 19.0311C8.35192 18.9337 8.40492 18.804 8.40479 18.6693V17.7376C8.4048 17.5984 8.34879 17.4649 8.24894 17.3659C8.14909 17.267 8.01344 17.2107 7.87147 17.2092H4.10925V10.886C4.10925 10.8173 4.09546 10.7494 4.06865 10.6859C4.04185 10.6225 4.00257 10.5649 3.95304 10.5164C3.90352 10.4678 3.84473 10.4293 3.78002 10.4031C3.71532 10.3768 3.64597 10.3633 3.57593 10.3633Z" fill="white"/>
<path d="M17.3981 11.4897C16.9426 11.0691 16.4067 10.7408 15.8213 10.5239C15.1818 10.2903 14.5038 10.1747 13.8214 10.183C13.1391 10.1762 12.4613 10.2917 11.8214 10.5239C11.2325 10.7407 10.6928 11.0689 10.233 11.4897C9.55632 12.1413 9.09459 12.9769 8.90754 13.8884C8.72049 14.8 8.81672 15.7455 9.1838 16.6028C9.42807 17.153 9.78522 17.6481 10.233 18.0572C10.6913 18.48 11.2314 18.8084 11.8214 19.0231C12.4613 19.2553 13.1391 19.3708 13.8214 19.3639C14.5038 19.3722 15.1818 19.2567 15.8213 19.0231C16.4064 18.8082 16.9423 18.4819 17.3981 18.0629C17.8436 17.6518 18.2004 17.1572 18.4473 16.6085C18.6997 16.0294 18.8299 15.4061 18.8299 14.7763C18.8299 14.1465 18.6997 13.5233 18.4473 12.9441C18.1969 12.3973 17.8406 11.9034 17.3981 11.4897ZM16.0648 15.8302C15.9507 16.1291 15.7751 16.4018 15.5488 16.6313C15.3317 16.8533 15.0689 17.0276 14.7779 17.1426C14.1607 17.3775 13.4762 17.3775 12.8591 17.1426C12.5687 17.0262 12.3062 16.8521 12.0881 16.6313C11.8637 16.4003 11.6883 16.1281 11.5721 15.8302C11.4463 15.4995 11.3834 15.1491 11.3866 14.7962C11.3817 14.4413 11.4446 14.0887 11.5721 13.7565C11.6898 13.4611 11.865 13.191 12.0881 12.9612C12.3031 12.7367 12.5665 12.5621 12.8591 12.4499C13.4743 12.2042 14.1612 12.1941 14.7836 12.4214C15.0769 12.5323 15.3406 12.7071 15.5546 12.9328C15.7796 13.1611 15.9551 13.4316 16.0706 13.7281C16.2008 14.0596 16.2638 14.4127 16.2561 14.7678C16.2641 15.1308 16.1991 15.4918 16.0648 15.8302Z" fill="white"/>
<path d="M19.7218 12.3404H21.9536V18.6693C21.9551 18.8084 22.0126 18.9414 22.1136 19.0392C22.2145 19.1371 22.3508 19.192 22.4927 19.1919H23.971C24.1124 19.1919 24.2481 19.1369 24.3481 19.0389C24.4481 18.9408 24.5043 18.8079 24.5043 18.6693V12.3404H26.7245C26.7945 12.3404 26.8639 12.3268 26.9286 12.3006C26.9933 12.2743 27.0521 12.2358 27.1016 12.1873C27.1511 12.1387 27.1904 12.0811 27.2172 12.0177C27.244 11.9543 27.2578 11.8863 27.2578 11.8177V10.886C27.2578 10.7473 27.2016 10.6144 27.1016 10.5164C27.0016 10.4183 26.866 10.3633 26.7245 10.3633H19.7218C19.5804 10.3633 19.4447 10.4183 19.3447 10.5164C19.2447 10.6144 19.1885 10.7473 19.1885 10.886V11.8177C19.1885 11.9563 19.2447 12.0892 19.3447 12.1873C19.4447 12.2853 19.5804 12.3404 19.7218 12.3404Z" fill="white"/>
<path d="M36.2316 11.4893C35.7761 11.0686 35.2402 10.7404 34.6548 10.5234C33.3618 10.069 31.9479 10.069 30.6549 10.5234C30.066 10.7403 29.5263 11.0684 29.0666 11.4893C28.3864 12.1387 27.9223 12.9744 27.7351 13.8868C27.5479 14.7992 27.6462 15.7457 28.0173 16.6024C28.2616 17.1526 28.6187 17.6476 29.0666 18.0568C29.5248 18.4796 30.0649 18.808 30.6549 19.0226C31.9479 19.477 33.3618 19.477 34.6548 19.0226C35.2395 18.8095 35.7754 18.4851 36.2316 18.0682C36.9117 17.4187 37.3758 16.583 37.5631 15.6706C37.7503 14.7582 37.6519 13.8117 37.2808 12.955C37.0317 12.4042 36.6753 11.9063 36.2316 11.4893ZM34.8751 15.8297C34.7589 16.1276 34.5836 16.3999 34.3592 16.6308C34.141 16.8517 33.8785 17.0258 33.5882 17.1421C33.2823 17.262 32.9553 17.3218 32.6259 17.3182C32.2983 17.3218 31.9733 17.262 31.6694 17.1421C31.3783 17.0271 31.1155 16.8528 30.8984 16.6308C30.6721 16.4013 30.4965 16.1286 30.3825 15.8297C30.2539 15.4998 30.1909 15.1489 30.197 14.7958C30.1893 14.4407 30.2523 14.0875 30.3825 13.7561C30.4979 13.4596 30.6734 13.189 30.8984 12.9607C31.1124 12.7351 31.3761 12.5602 31.6694 12.4494C31.9733 12.3295 32.2983 12.2697 32.6259 12.2733C32.9553 12.2697 33.2823 12.3295 33.5882 12.4494C33.8807 12.5616 34.1441 12.7363 34.3592 12.9607C34.5822 13.1905 34.7574 13.4606 34.8751 13.7561C35.0045 14.0822 35.0713 14.4288 35.0722 14.7787C35.0738 15.138 35.007 15.4945 34.8751 15.8297Z" fill="white"/>
</svg>
