<svg width="38" height="24" viewBox="0 0 38 24" fill="none" xmlns="http://www.w3.org/2000/svg">
<path fill-rule="evenodd" clip-rule="evenodd" d="M26.2234 7.78353C27.5591 6.49028 29.2074 5.83203 31.0551 5.83203C31.7124 5.83203 32.3634 5.92281 32.9977 6.09661C33.6532 6.27634 34.2772 6.54867 34.8571 6.90585C35.4303 7.25939 35.9512 7.68636 36.4061 8.18632C36.9077 8.73738 37.2968 9.37556 37.5708 10.0717C37.8592 10.8057 38 11.5807 38 12.3703C38 13.2142 37.8605 14.0467 37.5938 14.8459C37.2644 15.8336 36.6899 16.8207 36.1393 17.6975L33.8165 21.397C33.224 22.3645 32.2523 22.9297 31.1244 22.9297H28.74C27.6909 22.9297 26.7736 22.3011 26.4317 21.2898C26.3822 21.1452 26.3462 20.9988 26.3232 20.8519C26.2211 21.376 25.98 21.8568 25.576 22.2373L25.5458 22.2651C25.0424 22.7213 24.4009 22.9297 23.7332 22.9297H21.9701C21.3034 22.9297 20.6628 22.7217 20.1594 22.2665L20.1432 22.2519L20.1274 22.2368C19.6267 21.7651 19.3757 21.1393 19.3307 20.4673H16.1851C15.9916 20.4673 15.8004 20.45 15.6146 20.4144L15.4662 20.9764C15.167 22.1082 14.1286 22.9297 12.9684 22.9297H12.1231C11.4757 22.9297 10.9048 22.6775 10.4841 22.2733C9.42869 22.8996 8.23875 23.2158 6.95432 23.2158C6.29614 23.2158 5.64381 23.125 5.00812 22.9507C4.35444 22.7714 3.73045 22.5028 3.15055 22.1474C2.57874 21.7971 2.05912 21.3674 1.60339 20.872C1.09772 20.3214 0.708119 19.6859 0.43144 18.9884C0.139914 18.2535 0 17.4785 0 16.6861C0 15.8377 0.147562 15.0038 0.415694 14.2009C0.74591 13.2115 1.32221 12.2221 1.87602 11.3448L4.20058 7.66218C4.78858 6.69282 5.75853 6.11668 6.88819 6.11668H9.27888C10.3123 6.11668 11.2152 6.72476 11.5773 7.71236L11.5854 7.7338L11.5931 7.7557C11.8716 8.56768 11.7258 9.43851 11.221 10.12L10.6222 10.9667C10.6533 10.9836 10.6843 11.0004 10.7149 11.0182C11.1585 11.2687 11.5625 11.5665 11.9251 11.9087L12.9504 8.02895C13.2496 6.89719 14.2884 6.07563 15.4482 6.07563H16.2935C17.6598 6.07563 18.6851 7.19963 18.6801 8.50063L19.6825 7.20237L19.7144 7.16496C20.266 6.51492 21.0047 6.07836 21.8698 6.07836H23.7332C24.395 6.07836 25.0285 6.28273 25.531 6.73023C25.8616 7.024 26.0879 7.38483 26.2229 7.78216L26.2234 7.78353Z" fill="url(#paint0_linear_540_3302)"/>
<path fill-rule="evenodd" clip-rule="evenodd" d="M15.1031 8.28711H16.0515C16.3929 8.28711 16.6048 8.59137 16.5175 8.92027L13.3881 20.762C13.3117 21.0512 13.0242 21.2866 12.7264 21.2866H11.778C11.4365 21.2866 11.2246 20.9823 11.3115 20.6534L14.4409 8.8117C14.5178 8.52158 14.8039 8.28711 15.1027 8.28711H15.1031Z" fill="#264181"/>
<path fill-rule="evenodd" clip-rule="evenodd" d="M27.9157 20.5219L30.1516 17.3287C30.0707 17.3374 29.9915 17.3433 29.919 17.3433C29.1677 17.3433 28.4619 17.1581 27.8046 16.7891C27.1446 16.4187 26.6173 15.9041 26.2228 15.2518C25.8215 14.5876 25.6276 13.8628 25.6276 13.0841C25.6276 11.7247 26.1346 10.5751 27.0996 9.63452C28.0844 8.67428 29.2681 8.20215 30.6339 8.20215C31.1234 8.20215 31.6079 8.27057 32.0807 8.40013C32.5635 8.53242 33.0214 8.73267 33.4488 8.99588C33.8708 9.2559 34.2532 9.56838 34.5884 9.93651C34.9326 10.3147 35.1971 10.7512 35.3847 11.2288C35.584 11.7356 35.6785 12.2689 35.6785 12.814C35.6785 13.4481 35.5728 14.0717 35.3726 14.672C35.0963 15.5 34.5767 16.3712 34.1151 17.1066L31.7865 20.8153C31.5409 21.2222 31.1769 21.4466 30.7036 21.4466H28.3192C28.0822 21.4466 27.8838 21.338 27.8082 21.1072C27.7339 20.8974 27.7807 20.693 27.9166 20.5215L27.9157 20.5219ZM6.91639 12.6037C6.99557 12.5964 7.07385 12.5919 7.14898 12.5919C7.90029 12.5919 8.61021 12.7757 9.26659 13.1461C9.92658 13.5188 10.4538 14.0357 10.8479 14.6893C11.2492 15.3544 11.4458 16.0802 11.4458 16.8598C11.4458 18.2178 10.9393 19.3651 9.97381 20.3034C8.98587 21.2632 7.79772 21.7326 6.43052 21.7326C5.93969 21.7326 5.45427 21.6642 4.98054 21.5346C4.49781 21.4023 4.03803 21.2044 3.61018 20.9425C3.18864 20.6843 2.80624 20.3682 2.47062 20.0028C2.12421 19.6256 1.86058 19.1913 1.67118 18.7137C1.47008 18.2073 1.37695 17.6763 1.37695 17.1308C1.37695 16.4926 1.49077 15.8672 1.69232 15.2637C1.969 14.4353 2.48952 13.5635 2.95335 12.8291L5.28736 9.13137C5.5294 8.72309 5.89065 8.48908 6.36438 8.48908H8.75507C8.99351 8.48908 9.18696 8.59719 9.27334 8.83349C9.34577 9.04515 9.30213 9.24815 9.16942 9.41784L6.91639 12.6042V12.6037ZM24.0584 15.8941H24.9905C25.1988 15.8941 25.4292 15.9324 25.583 16.1003C25.7135 16.2535 25.7526 16.4565 25.7526 16.6541V18.2155C25.7526 18.4176 25.7117 18.6256 25.574 18.7753C25.4278 18.9404 25.2002 18.9846 24.9905 18.9846H24.0584V20.6871C24.0584 20.8965 24.0192 21.1209 23.8577 21.2728C23.7097 21.4069 23.505 21.447 23.312 21.447H21.5489C21.3559 21.447 21.1517 21.4069 21.0005 21.2701C20.8421 21.1209 20.803 20.8965 20.803 20.6871V18.9846H15.7643C15.5546 18.9846 15.3302 18.9404 15.1866 18.778C15.0467 18.6256 15.0058 18.4172 15.0058 18.2151V16.6504C15.0058 16.5172 15.0278 16.3836 15.0872 16.264C15.1533 16.1299 15.2438 15.9944 15.3275 15.8704L15.3311 15.8649L20.7337 8.86679C20.9137 8.65467 21.158 8.4503 21.4486 8.4503H23.312C23.5059 8.4503 23.7066 8.49045 23.8564 8.62365C24.0215 8.77054 24.0584 9.00911 24.0584 9.21986V15.8941ZM5.13755 15.78C4.79743 16.1135 4.63277 16.5113 4.63277 16.9912C4.63277 17.4738 4.79968 17.8743 5.1389 18.2128C5.48351 18.5568 5.89155 18.7187 6.37428 18.7187C6.86016 18.7187 7.2709 18.5545 7.62046 18.2114C7.96373 17.8748 8.13468 17.4752 8.13468 16.9912C8.13468 16.0017 7.32849 15.2824 6.37428 15.2824C5.89335 15.2824 5.48396 15.4407 5.13755 15.78ZM18.7178 15.8941H20.803V13.1333L18.7178 15.8941Z" fill="#002B8F"/>
<path fill-rule="evenodd" clip-rule="evenodd" d="M26.4978 15.001L26.4295 14.8828L26.3656 14.7633L26.3062 14.6424L26.2508 14.5202L26.2 14.3966L26.1537 14.2716L26.1118 14.1452L26.0745 14.0175L26.0416 13.8884L26.0129 13.7575L25.9886 13.6252L25.9688 13.4915L25.9535 13.3565L25.9422 13.2201L25.9355 13.0823L25.9332 12.9427L25.9386 12.7037L25.9553 12.4692L25.9827 12.2389L26.0214 12.0131L26.0709 11.7918L26.1316 11.5747L26.2032 11.3621L26.2859 11.1536L26.3795 10.9497L26.4839 10.7499L26.5995 10.5547L26.7259 10.3636L26.8636 10.177L27.0121 9.99497L27.1718 9.81707L27.3423 9.64372L27.4678 9.51645C27.5173 9.46445 27.5677 9.4129 27.6198 9.36226C28.5579 8.44628 29.6871 7.98828 31.0111 7.98828C31.4754 7.98828 31.9396 8.05169 32.4039 8.17896C32.8682 8.30623 33.3073 8.49737 33.7185 8.75145C34.1324 9.006 34.4963 9.30524 34.8135 9.65513C35.1302 10.0018 35.3844 10.4119 35.5698 10.8831C35.7547 11.3539 35.8491 11.8566 35.8491 12.3908C35.8491 12.9792 35.7515 13.5773 35.554 14.1817C35.3408 14.8085 34.9296 15.6068 34.3177 16.5707L31.9869 20.2825C31.9333 20.371 31.8749 20.4481 31.8105 20.5147L31.5329 20.7962L31.4322 20.8874L31.3233 20.9622L31.2059 21.0206L31.0799 21.0621L30.9454 21.0872L30.8028 21.0954H28.4184L28.359 21.0922L28.305 21.0831L28.2569 21.0676L28.2141 21.0457L28.1773 21.0174L28.1462 20.9827L28.121 20.9421L28.1017 20.8952L28.0873 20.845L28.0796 20.7953L28.0792 20.746L28.0855 20.6972L28.0985 20.6488L28.1188 20.6009L28.1458 20.5535L28.18 20.5065L30.6989 16.9091L30.5751 16.9283L30.4627 16.9452L30.361 16.9593L30.2706 16.9712L30.1909 16.9803L30.1226 16.9867L30.065 16.9908L30.0182 16.9922L29.8841 16.9899L29.751 16.984L29.6191 16.9735L29.4882 16.9593L29.3587 16.9406L29.23 16.9178L29.1027 16.8909L28.9763 16.8599L28.8507 16.8247L28.7266 16.7855L28.6033 16.7422L28.4814 16.6947L28.3604 16.6432L28.2407 16.5875L28.1219 16.5278L28.004 16.4639L27.888 16.3969L27.7751 16.3262L27.6648 16.2523L27.5578 16.1752L27.4534 16.0949L27.3522 16.0114L27.2536 15.9247L27.1583 15.8349L27.0656 15.7418L26.9761 15.6455L26.8892 15.5461L26.8056 15.4435L26.7246 15.3376L26.6463 15.2286L26.5707 15.1164L26.4983 15.001H26.4978ZM1.962 18.4939L1.92825 18.4054L1.89676 18.316L1.86752 18.2261L1.84008 18.1353L1.81533 18.0441L1.79239 17.9519L1.77169 17.8593L1.75325 17.7658L1.7366 17.6714L1.72221 17.5765L1.71006 17.4807L1.70016 17.384L1.69251 17.2864L1.68712 17.1883L1.68397 17.0893L1.68262 16.9894L1.68397 16.8809L1.68757 16.7718L1.69341 16.6619L1.70151 16.552L1.71231 16.4411L1.72536 16.3298L1.74065 16.218L1.7582 16.1058L1.77844 15.9931L1.80094 15.88L1.82568 15.7664L1.85312 15.6519L1.88282 15.537L1.91521 15.4216L1.94985 15.3057L1.98674 15.1889L2.02903 15.0694L2.07582 14.9458L2.12755 14.8181L2.18379 14.6867L2.24497 14.5512L2.31066 14.4116L2.38129 14.2684L2.45642 14.121L2.53605 13.9696L2.62063 13.8145L2.7097 13.6553L2.80373 13.492L2.90226 13.325L3.00528 13.1539L3.1128 12.9792L3.22527 12.8004L5.56243 9.09814L5.64656 8.97178L5.73878 8.86185L6.01636 8.58039C6.20891 8.37785 6.45095 8.27567 6.74023 8.27567H9.13092C9.29737 8.27567 9.404 8.34227 9.45393 8.47912C9.50072 8.61597 9.47553 8.74598 9.37835 8.87051L6.8437 12.4551C7.15097 12.404 7.37681 12.3789 7.52438 12.3789C8.24284 12.3789 8.91767 12.5536 9.54166 12.9072C10.1688 13.2602 10.6709 13.7502 11.0474 14.3765C11.4271 15.0033 11.6152 15.6903 11.6152 16.4379C11.6152 17.6399 11.2017 18.6795 10.3771 19.5567C10.3222 19.6151 10.2655 19.6731 10.2066 19.7301L9.92901 20.0116L9.84039 20.0959L9.75041 20.1776L9.65953 20.2565L9.56731 20.3327L9.47418 20.4061L9.3797 20.4773L9.28433 20.5453L9.1876 20.611L9.08998 20.6739L8.991 20.7341L8.89113 20.7916L8.7899 20.8463L8.68778 20.8983L8.58431 20.9481L8.47993 20.9951L8.37421 21.0393L8.26759 21.0808L8.15961 21.1196L8.05074 21.1556L7.94052 21.1894L7.82895 21.2204L7.71648 21.2487L7.60311 21.2742L7.48839 21.297L7.37231 21.3171L7.25535 21.3344L7.13748 21.349L7.01826 21.3609L6.89769 21.3705L6.77622 21.3773L6.6534 21.3814L6.52968 21.3828L6.44195 21.3819L6.35423 21.3796L6.26695 21.376L6.17967 21.3709L6.09239 21.3641L6.00511 21.3559L5.91784 21.3463L5.83056 21.3354L5.74328 21.3226L5.656 21.3084L5.56873 21.2929L5.48145 21.2756L5.39417 21.2569L5.30734 21.2368L5.22006 21.2154L5.13279 21.1921L5.04596 21.1675L4.95958 21.1415L4.8741 21.1141L4.78907 21.0849L4.7045 21.0544L4.62082 21.0224L4.53759 20.9891L4.45481 20.954L4.37293 20.9175L4.2915 20.8796L4.21052 20.8404L4.13044 20.7998L4.05081 20.7574L3.97163 20.7141L3.8929 20.6689L3.81507 20.6224L3.66301 20.5247L3.515 20.4226L3.37149 20.3158L3.23247 20.205L3.09751 20.0896L2.96704 19.97L2.84152 19.8464L2.7205 19.7187L2.66112 19.653L2.60353 19.5859L2.54775 19.5175L2.49331 19.4477L2.44022 19.3761L2.38894 19.3031L2.33945 19.2288L2.29131 19.153L2.24452 19.0759L2.19954 18.9975L2.1559 18.9172L2.11406 18.8355L2.07357 18.7525L2.03443 18.6681L1.99709 18.5819L1.9611 18.4943L1.962 18.4939ZM8.32967 17.5076L8.35891 17.4191L8.38366 17.3288L8.4039 17.2367L8.41965 17.1427L8.4309 17.0469L8.43764 16.9493L8.43989 16.8494L8.42955 16.6455L8.3994 16.4493L8.34992 16.2614L8.28288 16.083L8.19875 15.9142L8.09888 15.7564L7.98461 15.61L7.85684 15.4754L7.71648 15.3541L7.56442 15.2464L7.40246 15.1533L7.23105 15.0753L7.0511 15.0133L6.86395 14.9681L6.67094 14.9403L6.47299 14.9307L6.37222 14.933L6.27325 14.9394L6.17652 14.9503L6.08159 14.9654L5.98847 14.985L5.89759 15.0087C5.63621 15.0913 5.42206 15.1999 5.21152 15.3796C4.93799 15.7163 4.80212 16.1108 4.80212 16.5675C4.80212 17.1048 4.99017 17.5596 5.36988 17.9383C5.74958 18.3169 6.20756 18.5044 6.75012 18.5044C7.54237 18.5044 8.06334 18.1882 8.32922 17.5072L8.32967 17.5076ZM15.4365 18.4939L15.4068 18.4569L15.3812 18.4159L15.3596 18.3703L15.342 18.3201L15.3285 18.2653L15.3186 18.206L15.3128 18.1422L15.311 18.0742V16.5095L15.3119 16.4685L15.3146 16.4288L15.3191 16.39L15.3254 16.3526L15.3335 16.3166L15.3438 16.2819L15.356 16.2486L15.3704 16.2167L15.3875 16.1838L15.4077 16.1469L15.4311 16.1063L15.4577 16.062L15.4873 16.0141L15.5206 15.9621L15.5571 15.9069L15.5967 15.8481L20.9894 8.86276L21.0619 8.78202L21.3395 8.50056C21.5082 8.32539 21.6715 8.23735 21.8253 8.23735H23.6888C23.871 8.23735 24.0059 8.27886 24.0968 8.35824C24.1845 8.43761 24.2286 8.58404 24.2286 8.79707V15.6807H25.3677C25.5778 15.6807 25.7222 15.7249 25.8037 15.8143C25.8824 15.9065 25.9229 16.0433 25.9229 16.2313V17.7927C25.9229 17.9807 25.8819 18.1203 25.7974 18.2129C25.7902 18.2211 25.783 18.2284 25.7749 18.2357L25.5198 18.4943L25.486 18.5267L25.4469 18.555L25.4019 18.5792L25.3511 18.5988L25.2944 18.6143L25.2319 18.6253L25.1639 18.6321L25.0901 18.6344H24.2291V20.2647C24.2291 20.4714 24.1854 20.6114 24.0972 20.694L23.8197 20.9754L23.7846 21.0037L23.7445 21.0284L23.7 21.0493L23.651 21.0662L23.5974 21.0794L23.5398 21.089L23.4778 21.095L23.4116 21.0968H21.6485L21.5824 21.095L21.5203 21.089L21.4627 21.0794L21.4092 21.0662L21.3601 21.0493L21.3156 21.0284L21.2756 21.0037L21.24 20.9754L21.209 20.9417L21.1824 20.9024L21.1599 20.8577L21.1415 20.8071L21.1271 20.7505L21.1168 20.6885L21.1105 20.6205L21.1082 20.5462V18.6344H15.863L15.7892 18.6321L15.7217 18.6253L15.6601 18.6143L15.6039 18.5988L15.5535 18.5792L15.5089 18.555L15.4698 18.5267L15.4365 18.4943V18.4939ZM21.1082 15.6802V12.4597L18.6757 15.6802H21.1082Z" fill="#B3B3B3"/>
<path d="M26.3918 12.6413C26.3918 11.3563 26.8624 10.2555 27.8004 9.34273C28.7384 8.42675 29.8676 7.96875 31.1916 7.96875C31.6559 7.96875 32.1202 8.03216 32.5845 8.15943C33.0487 8.2867 33.4878 8.47784 33.899 8.73192C34.3129 8.98647 34.6769 9.28571 34.994 9.6356C35.3108 9.98229 35.5649 10.3924 35.7503 10.8636C35.9352 11.3344 36.0297 11.8371 36.0297 12.3712C36.0297 12.9597 35.932 13.5577 35.7346 14.1622C35.5213 14.7889 35.1101 15.5872 34.4983 16.5511L32.1674 20.263C31.9542 20.6161 31.6527 20.7944 31.2609 20.7944H28.8765C28.7105 20.7944 28.6034 20.7278 28.5598 20.5942C28.5125 20.4605 28.5377 20.33 28.6381 20.206L31.157 16.6086C30.8119 16.6629 30.5861 16.6912 30.4763 16.6912C29.7578 16.6912 29.0866 16.516 28.4622 16.1629C27.835 15.8131 27.3361 15.3231 26.9564 14.6995C26.5798 14.0728 26.3918 13.389 26.3918 12.6413ZM2.1416 16.6875C2.1416 16.1086 2.24193 15.5106 2.44572 14.8875C2.65897 14.2607 3.07286 13.4624 3.68471 12.4985L6.02186 8.79579C6.23511 8.43632 6.53608 8.25477 6.92209 8.25477H9.31278C9.47923 8.25477 9.58586 8.32137 9.63579 8.45822C9.68258 8.59507 9.65739 8.72554 9.56021 8.84961L7.02556 12.4342C7.33283 12.3831 7.55912 12.358 7.70624 12.358C8.4247 12.358 9.09953 12.5327 9.72352 12.8863C10.3507 13.2393 10.8527 13.7293 11.2293 14.3556C11.609 14.9824 11.797 15.6694 11.797 16.4166C11.797 17.6984 11.3265 18.7959 10.3885 19.7087C9.44729 20.6215 8.31493 21.0795 6.98822 21.0795C6.52079 21.0795 6.0565 21.0161 5.59222 20.8884C5.12794 20.7611 4.68885 20.5704 4.27496 20.3191C3.86376 20.065 3.49666 19.7626 3.17994 19.4159C2.85962 19.0692 2.60903 18.6618 2.42098 18.1911C2.23563 17.7203 2.1416 17.2208 2.1416 16.6862V16.6875ZM5.55173 15.1863C5.17203 15.5585 4.98398 16.0101 4.98398 16.5479C4.98398 17.0853 5.17203 17.5401 5.55173 17.9187C5.93144 18.2974 6.38942 18.4848 6.93198 18.4848C7.47455 18.4848 7.93568 18.2974 8.32168 17.9187C8.70768 17.5401 8.89888 17.0849 8.89888 16.5479C8.89888 15.4426 8.00001 14.6297 6.93198 14.6297C6.38942 14.6297 5.93099 14.814 5.55173 15.1863ZM15.77 17.7723V16.2076C15.77 16.0963 15.7889 15.9973 15.8294 15.9148C15.8703 15.8322 15.9454 15.7081 16.0552 15.5457L21.448 8.5604C21.6423 8.33141 21.8304 8.21691 22.0063 8.21691H23.8697C24.0519 8.21691 24.1869 8.25842 24.2778 8.33779C24.3655 8.41717 24.4096 8.5636 24.4096 8.77663V15.6602H25.5487C25.7588 15.6602 25.9032 15.7045 25.9846 15.7939C26.0634 15.886 26.1039 16.0229 26.1039 16.2108V17.7723C26.1039 17.9602 26.0629 18.0998 25.9783 18.1924C25.8969 18.2846 25.7525 18.3325 25.5487 18.3325H24.4096V20.2443C24.4096 20.4509 24.3659 20.591 24.2778 20.6735C24.19 20.7534 24.0519 20.7944 23.8697 20.7944H22.1066C21.9244 20.7944 21.7868 20.7534 21.6986 20.6735C21.6108 20.591 21.5668 20.4509 21.5668 20.2443V18.3325H16.3215C16.1177 18.3325 15.9765 18.2846 15.8951 18.1924C15.8105 18.1003 15.7695 17.9602 15.7695 17.7723H15.77ZM18.8571 15.6602H21.5677V12.072L18.8571 15.6602Z" fill="white"/>
<path fill-rule="evenodd" clip-rule="evenodd" d="M13.435 20.6307L13.4139 20.6522L13.1998 20.8693L13.1404 20.9241L13.0742 20.9692L13.0032 21.0034L12.9294 21.0253L12.8547 21.0331H11.9063L11.8353 21.0253L11.7727 21.0039L11.7196 20.9697L11.6773 20.9245L11.6472 20.8698L11.6301 20.8068L11.627 20.7375L11.6391 20.6631L14.7685 8.82142L14.7955 8.74707L14.8351 8.67773L14.8855 8.61478L15.1208 8.3762C15.2125 8.27767 15.3408 8.21289 15.4658 8.21289H16.4142C16.6148 8.21289 16.7345 8.3803 16.681 8.58239L13.5516 20.4241C13.5313 20.4998 13.4895 20.571 13.4346 20.6298L13.435 20.6307Z" fill="url(#paint1_linear_540_3302)"/>
<path d="M31.1873 13.811L29.9928 14.6809C29.7535 14.8789 29.4557 14.6745 29.5497 14.3744L30.014 12.8955C29.5857 12.5866 29.1574 12.2783 28.7291 11.969C28.4934 11.7988 28.6247 11.4649 28.9127 11.4636L30.458 11.4709C30.6029 11.0024 30.7478 10.5339 30.8931 10.0654C30.9381 9.91896 31.064 9.84096 31.1877 9.83594C31.311 9.8405 31.4374 9.91896 31.4824 10.0654C31.6277 10.5339 31.7721 11.0024 31.9175 11.4709L33.4628 11.4636C33.7507 11.4649 33.8821 11.7988 33.6464 11.969C33.2181 12.2783 32.7898 12.5866 32.3615 12.8955L32.8258 14.3744C32.9198 14.6745 32.622 14.8789 32.3826 14.6809L31.1882 13.811H31.1873Z" fill="url(#paint2_linear_540_3302)"/>
<path d="M28.5723 11.6164C28.6204 11.5292 28.7167 11.464 28.8435 11.4631L30.3889 11.4704L30.3444 11.615L28.6505 11.6068C28.6231 11.6068 28.597 11.6104 28.5723 11.6159V11.6164ZM30.8572 9.99012C30.9162 9.8925 31.0183 9.84004 31.1182 9.83594C31.2419 9.84096 31.3679 9.91896 31.4128 10.0654C31.5582 10.5339 31.7026 11.0024 31.8479 11.4709L33.3932 11.4636C33.6812 11.4649 33.8125 11.7988 33.5768 11.969L33.422 12.0808C33.6029 11.9042 33.4706 11.6086 33.1998 11.6072L31.6544 11.6145C31.5096 11.1461 31.3647 10.6776 31.2194 10.2091C31.1744 10.0627 31.0484 9.98465 30.9247 9.97963C30.9022 9.98054 30.8793 9.98374 30.8568 9.98967L30.8572 9.99012ZM32.2933 12.895L32.7562 14.3748C32.8192 14.576 32.7063 14.7338 32.5529 14.7566C32.5839 14.6919 32.5915 14.6098 32.5627 14.5185L32.0985 13.0351L32.2928 12.895H32.2933Z" fill="#FF6600"/>
<path d="M2.93226 4.05088H3.66557C3.76005 4.05088 3.84418 4.0892 3.90851 4.15899C3.9724 4.22833 4.00524 4.31363 4.00524 4.40852V4.93357C4.00524 5.03393 3.93505 5.10874 3.83563 5.10874H2.27408C2.17915 5.10874 2.09503 5.07088 2.02979 5.00108C1.96546 4.9322 1.93262 4.84644 1.93262 4.75201V1.06433C1.93262 0.963519 2.00235 0.889163 2.10222 0.889163H2.76265C2.86298 0.889163 2.93226 0.963519 2.93226 1.06433V4.05088ZM6.35139 0.785156C6.95243 0.785156 7.4698 1.00275 7.89494 1.43337C8.32053 1.864 8.53423 2.38905 8.53423 2.99849C8.53423 3.60794 8.32008 4.13299 7.89494 4.56361C7.4698 4.99424 6.95288 5.21274 6.35139 5.21274C5.74989 5.21274 5.23342 4.99424 4.80783 4.56361C4.38269 4.13299 4.16765 3.60794 4.16765 2.99849C4.16765 2.38905 4.38269 1.864 4.80783 1.43337C5.23342 1.00229 5.74989 0.785156 6.35139 0.785156V0.785156ZM9.6045 1.94702H8.86939C8.76907 1.94702 8.69664 1.87358 8.69664 1.77185V1.06433C8.69664 0.96215 8.76862 0.889163 8.86939 0.889163H11.3798C11.481 0.889163 11.5525 0.961694 11.5525 1.06433V1.58938C11.5525 1.68655 11.517 1.77276 11.4495 1.84165C11.3824 1.91053 11.2961 1.94702 11.2007 1.94702H10.646V4.93357C10.646 5.03529 10.5736 5.10874 10.4732 5.10874H9.77726C9.67649 5.10874 9.6045 5.03575 9.6045 4.93357V1.94702ZM13.9 0.785156C14.5011 0.785156 15.0184 1.00275 15.4436 1.43337C15.8692 1.864 16.0828 2.38905 16.0828 2.99849C16.0828 3.60794 15.8687 4.13299 15.4436 4.56361C15.0184 4.99424 14.5011 5.21274 13.9 5.21274C13.2985 5.21274 12.782 4.99424 12.3564 4.56361C11.9313 4.13299 11.7163 3.60794 11.7163 2.99849C11.7163 2.38905 11.9313 1.864 12.3564 1.43337C12.782 1.00229 13.2985 0.785156 13.9 0.785156V0.785156ZM7.15803 2.18012C6.93444 1.95386 6.66676 1.84256 6.35094 1.84256C6.03512 1.84256 5.76744 1.95295 5.54384 2.17967C5.32025 2.40639 5.21003 2.67735 5.21003 2.99804C5.21003 3.31873 5.3198 3.58923 5.54384 3.81641C5.76744 4.04312 6.03422 4.15489 6.35094 4.15489C6.66721 4.15489 6.93399 4.04312 7.15803 3.81641C7.38207 3.58969 7.49049 3.31873 7.49049 2.99804C7.49049 2.67781 7.38207 2.40639 7.15803 2.17967V2.18012ZM14.7071 2.18012C14.4835 1.95386 14.2158 1.84256 13.9 1.84256C13.5842 1.84256 13.3165 1.95295 13.0929 2.17967C12.8693 2.40639 12.7595 2.67735 12.7595 2.99804C12.7595 3.31873 12.8693 3.58923 13.0929 3.81641C13.3165 4.04312 13.5837 4.15489 13.9 4.15489C14.2163 4.15489 14.4831 4.04312 14.7071 3.81641C14.9311 3.58969 15.0396 3.31873 15.0396 2.99804C15.0396 2.67781 14.9311 2.40639 14.7071 2.17967V2.18012Z" fill="white"/>
<defs>
<linearGradient id="paint0_linear_540_3302" x1="20.9138" y1="21.3017" x2="20.9138" y2="5.98029" gradientUnits="userSpaceOnUse">
<stop stop-color="#2358BA"/>
<stop offset="1" stop-color="#1795D7"/>
</linearGradient>
<linearGradient id="paint1_linear_540_3302" x1="16.6937" y1="8.21289" x2="11.5046" y2="20.9834" gradientUnits="userSpaceOnUse">
<stop stop-color="#FFCD01"/>
<stop offset="1" stop-color="#FF8501"/>
</linearGradient>
<linearGradient id="paint2_linear_540_3302" x1="31.8077" y1="10.5147" x2="27.6548" y2="14.8675" gradientUnits="userSpaceOnUse">
<stop stop-color="#FFCC00"/>
<stop offset="1" stop-color="#FF6600"/>
</linearGradient>
</defs>
</svg>
